<svg xmlns="http://www.w3.org/2000/svg" xmlns:xlink="http://www.w3.org/1999/xlink" width="874" height="380" viewBox="0 0 874 380">
  <defs>
    <clipPath id="clip-msme-loan">
      <rect width="874" height="380"/>
    </clipPath>
  </defs>
  <g id="msme-loan" clip-path="url(#clip-msme-loan)">
    <g id="Group_325" data-name="Group 325" transform="translate(-999 -359)">
      <g id="Group_253" data-name="Group 253" transform="translate(945.991)">
        <rect id="Rectangle_56" data-name="Rectangle 56" width="874.392" height="380" transform="translate(52.809 359)" fill="#262262"/>
      </g>
      <g id="Group_250" data-name="Group 250" transform="translate(246)">
        <path id="Path_211" data-name="Path 211" d="M763.025,368.657s2.269-6.428,7.562-4.537C773.612,364.876,763.025,368.657,763.025,368.657Z" transform="translate(298.809 359)" fill="#57a8ac"/>
        <path id="Path_212" data-name="Path 212" d="M763.025,368.657s-3.025-7.562-7.562-7.562S763.025,368.657,763.025,368.657Z" transform="translate(298.809 359)" fill="#57a8ac"/>
        <path id="Path_213" data-name="Path 213" d="M762.269,367.9a22.814,22.814,0,0,1-3.025-3.025c-.378-.378-.378-.756-.756-.756-.378-.378-.378-.756-.756-.756s-.756-.378-1.134-.378a1.389,1.389,0,0,1-1.134-.378,1.389,1.389,0,0,0,1.134.378,1.389,1.389,0,0,1,1.134.378c.378,0,.378.378.756.756s.378.756.756.756a2.952,2.952,0,0,0,1.512,1.512C761.134,367.144,761.891,367.522,762.269,367.9Z" transform="translate(298.809 359)" fill="#bcbec0"/>
        <path id="Path_214" data-name="Path 214" d="M756.6,363.741h1.134a.37.37,0,0,0,.378-.378v-.378a.37.37,0,0,0-.378-.378c0-.378-.378-.378-.378-.756,0,.378.378.378.378.756s.378.378.378.756l-.378.378h-.378C757.353,363.363,756.975,363.741,756.6,363.741Z" transform="translate(298.809 359)" fill="#bcbec0"/>
        <path id="Path_215" data-name="Path 215" d="M758.866,365.254l.378.378H760v0h-.378C759.244,365.254,759.244,365.254,758.866,365.254Z" transform="translate(298.809 359)" fill="#bcbec0"/>
        <path id="Path_216" data-name="Path 216" d="M763.4,367.9c1.134-.378,2.269-1.134,3.4-1.512a13.265,13.265,0,0,1,3.025-1.891,8.233,8.233,0,0,0-3.025,1.891A13.431,13.431,0,0,1,763.4,367.9Z" transform="translate(298.809 359)" fill="#bcbec0"/>
        <path id="Path_217" data-name="Path 217" d="M767.94,363.741c0,.378-.378.378-.378.756v.756a.37.37,0,0,0,.378.378h0a.37.37,0,0,1-.378-.378V364.5C767.94,364.119,767.94,364.119,767.94,363.741Z" transform="translate(298.809 359)" fill="#bcbec0"/>
        <path id="Path_218" data-name="Path 218" d="M766.428,365.632c0,.378,0,.378-.378.756v.756a.37.37,0,0,0,.378.378h0v-1.891Z" transform="translate(298.809 359)" fill="#bcbec0"/>
        <path id="Path_224" data-name="Path 224" d="M635.98,365.632s-3.4-10.209-12.1-7.184C619.343,360.338,635.98,365.632,635.98,365.632Z" transform="translate(298.809 359)" fill="#57a8ac"/>
        <path id="Path_226" data-name="Path 226" d="M636.736,364.876a30.224,30.224,0,0,0,4.915-4.915,5.219,5.219,0,0,0,1.134-1.512c.378-.378.756-1.134,1.134-1.134a2.833,2.833,0,0,1,1.891-.378,1.964,1.964,0,0,0,1.512-.756,2.867,2.867,0,0,1-1.512.756c-.756,0-1.134.378-1.891.378l-1.134,1.134c-.378.378-.756,1.134-1.134,1.512-.756.756-1.512,1.891-2.269,2.647A16.442,16.442,0,0,1,636.736,364.876Z" transform="translate(298.809 359)" fill="#bcbec0"/>
        <path id="Path_228" data-name="Path 228" d="M642.408,360.338c-.378,0-.378.378-.756.378a.37.37,0,0,0-.378.378h-.756a1.32,1.32,0,0,0-.378-.756v-.756c0,.378,0,.756.378.756,0,.378,0,.756.378.756h.756A.813.813,0,0,1,642.408,360.338Z" transform="translate(298.809 359)" fill="#bcbec0"/>
        <path id="Path_229" data-name="Path 229" d="M635.224,364.876c-1.891-.378-3.4-1.512-5.294-2.647a21.436,21.436,0,0,0-4.915-3.025,21.436,21.436,0,0,1,4.915,3.025A22.944,22.944,0,0,0,635.224,364.876Z" transform="translate(298.809 359)" fill="#bcbec0"/>
        <path id="Path_230" data-name="Path 230" d="M628.04,358.07c.378.378.378.756.378,1.512,0,.378,0,.378.378.756,0,.378.378.378.378.756s-.378.378-.756.378h-.756a2.858,2.858,0,0,1-1.512-.378h2.269c.378,0,.378,0,.378-.378v-.756c0-.378,0-.378-.378-.756A1.389,1.389,0,0,1,628.04,358.07Z" transform="translate(298.809 359)" fill="#bcbec0"/>
        <path id="Path_231" data-name="Path 231" d="M630.687,361.095a1.32,1.32,0,0,0,.378.756v.756a.37.37,0,0,1-.378.378h.378c0-.378,0-.756-.378-.756Z" transform="translate(298.809 359)" fill="#bcbec0"/>
        <path id="Path_232" data-name="Path 232" d="M635.98,373.572s1.134-3.781,4.159-2.647C642.03,371.682,635.98,373.572,635.98,373.572Z" transform="translate(298.809 359)" fill="#57a8ac"/>
        <path id="Path_233" data-name="Path 233" d="M635.98,373.572s-1.512-4.159-4.159-4.159S635.98,373.572,635.98,373.572Z" transform="translate(298.809 359)" fill="#57a8ac"/>
        <path id="Path_234" data-name="Path 234" d="M635.6,373.194a3.775,3.775,0,0,1-1.512-1.891l-.378-.378-.378-.378h-.756c-.378,0-.378,0-.756-.378a1.32,1.32,0,0,0,.756.378h.756l.378.378.378.378c.378.378.378.756.756.756A2.906,2.906,0,0,0,635.6,373.194Z" transform="translate(298.809 359)" fill="#bcbec0"/>
        <path id="Path_235" data-name="Path 235" d="M632.577,370.925h.756a.37.37,0,0,0,.378-.378v-.756l-.378-.378a4417.156,4417.156,0,0,1,.756.756h-.378C632.955,370.925,632.577,370.925,632.577,370.925Z" transform="translate(298.809 359)" fill="#bcbec0"/>
        <path id="Path_236" data-name="Path 236" d="M633.711,371.682h0l.378.378h.378v0c0-.378-.378-.378-.756-.378Z" transform="translate(298.809 359)" fill="#bcbec0"/>
        <path id="Path_237" data-name="Path 237" d="M636.358,373.194c.756,0,1.134-.378,1.891-1.134a8.265,8.265,0,0,1,1.891-1.134c-.756.378-1.134.756-1.891,1.134A3.455,3.455,0,0,1,636.358,373.194Z" transform="translate(298.809 359)" fill="#bcbec0"/>
        <path id="Path_238" data-name="Path 238" d="M639.005,370.925a.37.37,0,0,1-.378.378v.756h.378V371.3C638.627,371.3,639.005,370.925,639.005,370.925Z" transform="translate(298.809 359)" fill="#bcbec0"/>
        <path id="Path_239" data-name="Path 239" d="M637.871,371.682h0a.37.37,0,0,1-.378.378v.378h0c.378,0,.378,0,.378-.756Z" transform="translate(298.809 359)" fill="#bcbec0"/>
        <path id="Path_253" data-name="Path 253" d="M1207.3,368.657s2.269-6.428,7.562-4.537C1217.891,364.876,1207.3,368.657,1207.3,368.657Z" transform="translate(298.809 359)" fill="#57a8ac"/>
        <path id="Path_254" data-name="Path 254" d="M1207.3,368.657s-3.025-7.562-7.562-7.562S1207.3,368.657,1207.3,368.657Z" transform="translate(298.809 359)" fill="#57a8ac"/>
        <path id="Path_255" data-name="Path 255" d="M1206.925,367.9a22.809,22.809,0,0,1-3.025-3.025c-.378-.378-.378-.756-.756-.756-.378-.378-.378-.756-.756-.756s-.756-.378-1.134-.378a1.389,1.389,0,0,1-1.134-.378,1.389,1.389,0,0,0,1.134.378,1.389,1.389,0,0,1,1.134.378c.378,0,.378.378.756.756s.378.756.756.756a52999.452,52999.452,0,0,0,3.025,3.025Z" transform="translate(298.809 359)" fill="#bcbec0"/>
        <path id="Path_256" data-name="Path 256" d="M1200.876,363.741h1.134a.37.37,0,0,0,.378-.378v-.378a.37.37,0,0,0-.378-.378c0-.378-.378-.378-.378-.756,0,.378.378.378.378.756s.378.378.378.756l-.378.378h-.378C1201.632,363.363,1201.254,363.741,1200.876,363.741Z" transform="translate(298.809 359)" fill="#bcbec0"/>
        <path id="Path_257" data-name="Path 257" d="M1203.144,365.254l.378.378h.756v0h-.378C1203.522,365.254,1203.522,365.254,1203.144,365.254Z" transform="translate(298.809 359)" fill="#bcbec0"/>
        <path id="Path_258" data-name="Path 258" d="M1207.682,367.9c1.134-.378,2.269-1.134,3.4-1.512a13.264,13.264,0,0,1,3.025-1.891,8.232,8.232,0,0,0-3.025,1.891A13.432,13.432,0,0,1,1207.682,367.9Z" transform="translate(298.809 359)" fill="#bcbec0"/>
        <path id="Path_259" data-name="Path 259" d="M1212.6,363.741c0,.378-.378.378-.378.756v.756a.37.37,0,0,0,.378.378h0a.37.37,0,0,1-.378-.378V364.5C1212.219,364.119,1212.219,364.119,1212.6,363.741Z" transform="translate(298.809 359)" fill="#bcbec0"/>
        <path id="Path_260" data-name="Path 260" d="M1210.707,365.632c0,.378,0,.378-.378.756v.756a.37.37,0,0,0,.378.378h0v-1.891Z" transform="translate(298.809 359)" fill="#bcbec0"/>
        <path id="Path_274" data-name="Path 274" d="M1022.786,366.766s2.269-7.562,8.7-5.294C1034.886,362.607,1022.786,366.766,1022.786,366.766Z" transform="translate(298.809 359)" fill="#57a8ac"/>
        <path id="Path_275" data-name="Path 275" d="M1022.786,366.766s-3.4-8.7-8.7-8.7S1022.786,366.766,1022.786,366.766Z" transform="translate(298.809 359)" fill="#57a8ac"/>
        <path id="Path_276" data-name="Path 276" d="M1022.03,366.01c-1.134-1.134-2.647-2.269-3.4-3.781-.378-.378-.378-.756-.756-1.134s-.378-.756-.756-1.134a1.389,1.389,0,0,0-1.134-.378,1.389,1.389,0,0,1-1.134-.378,1.389,1.389,0,0,0,1.134.378,1.389,1.389,0,0,1,1.134.378l.756.756c.378.378.378.756.756,1.134.378.756,1.134,1.134,1.512,1.891C1020.9,364.876,1021.274,365.632,1022.03,366.01Z" transform="translate(298.809 359)" fill="#bcbec0"/>
        <path id="Path_277" data-name="Path 277" d="M1015.6,361.095h1.512a.37.37,0,0,0,.378-.378c0-.378,0-.378-.378-.378a.37.37,0,0,0-.378-.378c0-.378-.378-.378-.756-.756a17460.224,17460.224,0,0,0,.756,1.512.37.37,0,0,1-.378.378h-.756Z" transform="translate(298.809 359)" fill="#bcbec0"/>
        <path id="Path_278" data-name="Path 278" d="M1018.249,362.607l.378.378h.756c0-.378,0-.378.378-.756v0c0,.378,0,.378-.378.756h-.378C1018.627,362.985,1018.249,362.985,1018.249,362.607Z" transform="translate(298.809 359)" fill="#bcbec0"/>
        <path id="Path_279" data-name="Path 279" d="M1023.164,366.01a11.828,11.828,0,0,0,3.781-1.891l3.4-2.269c-1.512.378-2.647,1.512-3.781,2.269A7.312,7.312,0,0,1,1023.164,366.01Z" transform="translate(298.809 359)" fill="#bcbec0"/>
        <path id="Path_280" data-name="Path 280" d="M1028.836,361.095c0,.378-.378.756-.378,1.134v.756a.37.37,0,0,0,.378.378h0a.37.37,0,0,1-.378-.378v-.756A1.389,1.389,0,0,1,1028.836,361.095Z" transform="translate(298.809 359)" fill="#bcbec0"/>
        <path id="Path_281" data-name="Path 281" d="M1026.567,363.363c0,.378-.378.378-.378.756v.756a.37.37,0,0,0,.378.378h0a1.171,1.171,0,0,1,.378-.756A2.926,2.926,0,0,1,1026.567,363.363Z" transform="translate(298.809 359)" fill="#bcbec0"/>
        <path id="Path_388" data-name="Path 388" d="M1101.055,356.179c0,.378-.378.756-.378,1.134v.756a.37.37,0,0,0,.378.378h.378a1.389,1.389,0,0,0,1.134-.378h-1.512a.37.37,0,0,1-.378-.378c0-.378.378-.756.378-1.134C1100.677,356.935,1100.677,356.557,1101.055,356.179Z" transform="translate(298.809 359)" fill="#bcbec0"/>
        <path id="Path_401" data-name="Path 401" d="M890.07,364.876s2.647-8.318,9.831-6.05C903.682,360.338,890.07,364.876,890.07,364.876Z" transform="translate(298.809 359)" fill="#57a8ac"/>
        <path id="Path_402" data-name="Path 402" d="M890.07,364.876s-3.781-9.831-9.831-9.831S890.07,364.876,890.07,364.876Z" transform="translate(298.809 359)" fill="#57a8ac"/>
        <path id="Path_403" data-name="Path 403" d="M889.313,364.119a13.081,13.081,0,0,1-3.781-4.159c-.378-.378-.378-.756-.756-1.134s-.378-.756-1.134-1.134a2.273,2.273,0,0,0-1.512-.378c-.378,0-1.134-.378-1.512-.378.378.378.756.378,1.512.756a2.273,2.273,0,0,1,1.512.378c.378.378.756.756.756,1.134.378.378.378.756.756,1.134.756.756,1.134,1.512,1.891,2.269C887.8,362.985,888.557,363.741,889.313,364.119Z" transform="translate(298.809 359)" fill="#bcbec0"/>
        <path id="Path_404" data-name="Path 404" d="M881.751,358.826h1.891l.378-.378c0-.378,0-.378-.378-.378a.37.37,0,0,0-.378-.378c-.378-.378-.378-.756-.756-.756.378.378.378.756.756,1.134,0,.378.378.756.378,1.134a.37.37,0,0,1-.378.378h-.756C882.507,358.448,882.129,358.448,881.751,358.826Z" transform="translate(298.809 359)" fill="#bcbec0"/>
        <path id="Path_405" data-name="Path 405" d="M884.776,360.716c.378,0,.378.378.756.378a.37.37,0,0,1,.378.378h.378c0-.378,0-.378.378-.756v-.756c0,.378,0,.378-.378.756,0,.378,0,.378-.378.756h-.756C885.154,360.716,884.776,360.716,884.776,360.716Z" transform="translate(298.809 359)" fill="#bcbec0"/>
        <path id="Path_406" data-name="Path 406" d="M890.448,364.5a9.014,9.014,0,0,0,4.159-2.269,39.842,39.842,0,0,1,4.159-2.647,25.43,25.43,0,0,0-4.159,2.647C893.095,362.985,891.96,363.741,890.448,364.5Z" transform="translate(298.809 359)" fill="#bcbec0"/>
        <path id="Path_407" data-name="Path 407" d="M896.5,358.826c0,.378-.378.756-.378,1.134a1.171,1.171,0,0,1-.378.756v.756a.37.37,0,0,0,.378.378h.756a1.389,1.389,0,0,0,1.134-.378H896.5a.37.37,0,0,1-.378-.378V359.96A1.389,1.389,0,0,0,896.5,358.826Z" transform="translate(298.809 359)" fill="#bcbec0"/>
        <path id="Path_408" data-name="Path 408" d="M894.229,361.095c0,.378-.378.378-.378.756v.756a.37.37,0,0,0,.378.378h-.378c0-.378,0-.378.378-.756Z" transform="translate(298.809 359)" fill="#bcbec0"/>
        <path id="Path_197" data-name="Path 197" d="M1066.269,48.02V60.5h17.393L945.274,134.607,904.06,109.652,700.637,209.473l5.294,10.965L903.3,124.02,944.9,148.6l145.572-77.891-7.94,14.746,10.965,5.672,23.443-43.1Z" transform="translate(298.809 359)" fill="#3d3e83"/>
        <rect id="Rectangle_57" data-name="Rectangle 57" width="0.756" height="50.667" transform="translate(1061.078 688.333)" fill="#57a8ac"/>
        <path id="Path_198" data-name="Path 198" d="M784.955,307.781a22.308,22.308,0,1,1-22.308-22.308C775.124,285.851,784.955,295.682,784.955,307.781Z" transform="translate(298.809 359)" fill="#fbc83f"/>
        <path id="Path_199" data-name="Path 199" d="M779.662,310.05a17.015,17.015,0,1,1-34.03,0v-1.134A16.908,16.908,0,0,0,762.269,324.8a16.645,16.645,0,0,0,16.637-15.881C779.662,309.294,779.662,309.672,779.662,310.05Z" transform="translate(298.809 359)" fill="#f4c79a"/>
        <path id="Path_200" data-name="Path 200" d="M779.662,308.915A16.908,16.908,0,0,1,763.025,324.8a16.645,16.645,0,0,1-16.637-15.881,16.908,16.908,0,0,1,16.637-15.881C771.721,293.035,778.905,300.219,779.662,308.915Z" transform="translate(298.809 359)" fill="#cf9b50"/>
        <path id="Path_201" data-name="Path 201" d="M779.662,307.781v1.134a16.846,16.846,0,0,0-16.637-15.5,16.326,16.326,0,0,0-16.637,15.5v-1.134A16.944,16.944,0,0,1,763.4,290.766,17.32,17.32,0,0,1,779.662,307.781Z" transform="translate(298.809 359)" fill="#ab835f"/>
        <path id="Path_203" data-name="Path 203" d="M762.647,354.667s-6.05-18.149-21.552-12.478C733.154,344.836,762.647,354.667,762.647,354.667Z" transform="translate(298.809 359)" fill="#57a8ac"/>
        <path id="Path_204" data-name="Path 204" d="M762.647,354.667s8.318-21.552,20.8-21.552C796.677,333.114,762.647,354.667,762.647,354.667Z" transform="translate(298.809 359)" fill="#57a8ac"/>
        <path id="Path_205" data-name="Path 205" d="M764.159,352.776a66.266,66.266,0,0,0,8.7-9.075,16.012,16.012,0,0,0,1.891-2.647,4.413,4.413,0,0,1,2.269-2.269,11.689,11.689,0,0,1,3.025-.756,4.293,4.293,0,0,0,3.025-1.134,7.6,7.6,0,0,1-3.025,1.512c-1.134.378-2.269.378-3.025.756a5.558,5.558,0,0,0-1.891,2.269,11.49,11.49,0,0,1-1.891,2.647,45.307,45.307,0,0,1-4.159,4.537A26.034,26.034,0,0,1,764.159,352.776Z" transform="translate(298.809 359)" fill="#bcbec0"/>
        <path id="Path_206" data-name="Path 206" d="M780.418,341.055c-.756,0-1.891-.378-2.647-.378a1.389,1.389,0,0,1-1.134-.378,1.207,1.207,0,0,1-1.134-1.134c0-.378.378-.756.378-1.134.378-.378.378-.756.756-1.134A8.25,8.25,0,0,1,778.149,335l-1.134,2.269-1.134,2.269c0,.378.378.378.756.756a1.389,1.389,0,0,1,1.134.378A5.607,5.607,0,0,1,780.418,341.055Z" transform="translate(298.809 359)" fill="#bcbec0"/>
        <path id="Path_207" data-name="Path 207" d="M773.99,344.836a1.964,1.964,0,0,1-1.512.756c-.378,0-.378.378-.756.378s-.756.378-1.134,0a2.858,2.858,0,0,1-.378-1.512v-1.512c0,.378.378,1.134.378,1.512s.378,1.134.378,1.512c.378.378.756,0,1.134-.378C773.234,345.214,773.612,345.214,773.99,344.836Z" transform="translate(298.809 359)" fill="#bcbec0"/>
        <path id="Path_208" data-name="Path 208" d="M761.891,353.154a21.324,21.324,0,0,1-9.075-4.915,68.763,68.763,0,0,0-8.7-5.672c3.4,1.134,6.05,3.4,9.075,5.294A25.62,25.62,0,0,0,761.891,353.154Z" transform="translate(298.809 359)" fill="#bcbec0"/>
        <path id="Path_209" data-name="Path 209" d="M748.279,341.055l1.134,2.269c0,.378.378.756.378,1.134s.378.756.378,1.512-.756,1.134-1.134.756H747.9c-.756,0-1.512-.378-2.647-.378h3.781a1.32,1.32,0,0,0,.756-.378,1.389,1.389,0,0,0-.378-1.134c0-.378-.378-.756-.378-1.134A5.464,5.464,0,0,0,748.279,341.055Z" transform="translate(298.809 359)" fill="#bcbec0"/>
        <path id="Path_210" data-name="Path 210" d="M753.194,345.97c.378.378.378,1.134.756,1.512,0,.378.378.378.378.756s.378.378.378,1.134a.813.813,0,0,1-.756.756h-.756c-.378,0-1.134-.378-1.512-.378h2.647c.378,0,.378,0,.378-.378s-.378-1.134-.378-1.512C753.572,347.1,753.194,346.726,753.194,345.97Z" transform="translate(298.809 359)" fill="#bcbec0"/>
        <rect id="Rectangle_58" data-name="Rectangle 58" width="0.378" height="28.358" transform="translate(934.41 710.642)" fill="#57a8ac"/>
        <path id="Path_219" data-name="Path 219" d="M648.458,339.542a12.478,12.478,0,1,1-12.478-12.478A12.588,12.588,0,0,1,648.458,339.542Z" transform="translate(298.809 359)" fill="#fbc83f"/>
        <path id="Path_220" data-name="Path 220" d="M645.433,340.677a9.453,9.453,0,1,1-18.905,0V340.3a9.811,9.811,0,0,0,9.453,9.075,9.524,9.524,0,0,0,9.453-9.075Z" transform="translate(298.809 359)" fill="#f4c79a"/>
        <path id="Path_221" data-name="Path 221" d="M645.433,339.92A9.811,9.811,0,0,1,635.98,349a9.524,9.524,0,0,1-9.453-9.075,9.811,9.811,0,0,1,9.453-9.075A10.124,10.124,0,0,1,645.433,339.92Z" transform="translate(298.809 359)" fill="#cf9b50"/>
        <path id="Path_222" data-name="Path 222" d="M645.433,339.542v.756a9.486,9.486,0,0,0-18.905,0v-.756a9.453,9.453,0,1,1,18.905,0Z" transform="translate(298.809 359)" fill="#ab835f"/>
        <path id="Path_225" data-name="Path 225" d="M635.98,365.632s4.537-12.1,11.721-12.1S635.98,365.632,635.98,365.632Z" transform="translate(298.809 359)" fill="#57a8ac"/>
        <path id="Path_227" data-name="Path 227" d="M645.811,358.07a2.273,2.273,0,0,1-1.512-.378h-.756a.37.37,0,0,1-.378-.378c0-.378,0-.378.378-.756,0-.378.378-.378.378-.756.378-.378.378-.756.756-1.134-.378.378-.378.756-.756,1.134a1.389,1.389,0,0,0-.378,1.134.37.37,0,0,0,.378.378h.756C645.055,357.692,645.433,358.07,645.811,358.07Z" transform="translate(298.809 359)" fill="#bcbec0"/>
        <rect id="Rectangle_59" data-name="Rectangle 59" width="0.756" height="50.667" transform="translate(1505.355 688.333)" fill="#57a8ac"/>
        <path id="Path_240" data-name="Path 240" d="M1229.234,307.781a22.308,22.308,0,1,1-22.308-22.308C1219.4,285.851,1229.234,295.682,1229.234,307.781Z" transform="translate(298.809 359)" fill="#fbc83f"/>
        <path id="Path_241" data-name="Path 241" d="M1223.94,310.05a17.015,17.015,0,1,1-34.03,0v-1.134a16.908,16.908,0,0,0,16.637,15.881,16.645,16.645,0,0,0,16.637-15.881C1223.94,309.294,1223.94,309.672,1223.94,310.05Z" transform="translate(298.809 359)" fill="#f4c79a"/>
        <path id="Path_242" data-name="Path 242" d="M1223.94,308.915A16.908,16.908,0,0,1,1207.3,324.8a16.645,16.645,0,0,1-16.637-15.881,16.655,16.655,0,0,1,33.274,0Z" transform="translate(298.809 359)" fill="#cf9b50"/>
        <path id="Path_243" data-name="Path 243" d="M1223.94,307.781v1.134a16.846,16.846,0,0,0-16.637-15.5,16.327,16.327,0,0,0-16.637,15.5v-1.134a16.944,16.944,0,0,1,17.015-17.015A17.32,17.32,0,0,1,1223.94,307.781Z" transform="translate(298.809 359)" fill="#ab835f"/>
        <path id="Path_245" data-name="Path 245" d="M1207.3,354.667s-6.05-18.149-21.552-12.478C1177.433,344.836,1207.3,354.667,1207.3,354.667Z" transform="translate(298.809 359)" fill="#57a8ac"/>
        <path id="Path_246" data-name="Path 246" d="M1207.3,354.667s8.318-21.552,20.8-21.552C1241.333,333.114,1207.3,354.667,1207.3,354.667Z" transform="translate(298.809 359)" fill="#57a8ac"/>
        <path id="Path_247" data-name="Path 247" d="M1208.816,352.776a66.263,66.263,0,0,0,8.7-9.075,16.008,16.008,0,0,0,1.891-2.647,4.413,4.413,0,0,1,2.269-2.269,11.688,11.688,0,0,1,3.025-.756,4.293,4.293,0,0,0,3.025-1.134,7.6,7.6,0,0,1-3.025,1.512c-1.134.378-2.269.378-3.025.756a5.558,5.558,0,0,0-1.891,2.269,11.491,11.491,0,0,1-1.891,2.647,45.308,45.308,0,0,1-4.159,4.537C1211.841,350.129,1210.328,351.642,1208.816,352.776Z" transform="translate(298.809 359)" fill="#bcbec0"/>
        <path id="Path_248" data-name="Path 248" d="M1225.075,341.055c-.756,0-1.891-.378-2.647-.378a1.389,1.389,0,0,1-1.134-.378,1.207,1.207,0,0,1-1.134-1.134c0-.378.378-.756.378-1.134.378-.378.378-.756.756-1.134a8.248,8.248,0,0,1,1.512-1.891l-1.134,2.269-1.134,2.269c0,.378.378.378.756.756a1.389,1.389,0,0,1,1.134.378A7.382,7.382,0,0,1,1225.075,341.055Z" transform="translate(298.809 359)" fill="#bcbec0"/>
        <path id="Path_249" data-name="Path 249" d="M1218.647,344.836a1.965,1.965,0,0,1-1.512.756c-.378,0-.378.378-.756.378s-.756.378-1.134,0a2.858,2.858,0,0,1-.378-1.512v-1.512c0,.378.378,1.134.378,1.512s.378,1.134.378,1.512c.378.378.756,0,1.134-.378C1217.512,345.214,1217.891,345.214,1218.647,344.836Z" transform="translate(298.809 359)" fill="#bcbec0"/>
        <path id="Path_250" data-name="Path 250" d="M1206.169,353.154a21.323,21.323,0,0,1-9.075-4.915,68.768,68.768,0,0,0-8.7-5.672c3.4,1.134,6.05,3.4,9.075,5.294A25.62,25.62,0,0,0,1206.169,353.154Z" transform="translate(298.809 359)" fill="#bcbec0"/>
        <path id="Path_251" data-name="Path 251" d="M1192.935,341.055l1.134,2.269c0,.378.378.756.378,1.134s.378.756.378,1.512-.756,1.134-1.134.756h-1.134c-.756,0-1.512-.378-2.269-.378h3.781a1.32,1.32,0,0,0,.756-.378,1.389,1.389,0,0,0-.378-1.134c0-.378-.378-.756-.378-1.134A5.026,5.026,0,0,1,1192.935,341.055Z" transform="translate(298.809 359)" fill="#bcbec0"/>
        <path id="Path_252" data-name="Path 252" d="M1197.473,345.97c.378.378.378,1.134.756,1.512,0,.378.378.378.378.756s.378.378.378,1.134a.813.813,0,0,1-.756.756h-.756c-.378,0-1.134-.378-1.512-.378h2.647c.378,0,.378,0,.378-.378s-.378-1.134-.378-1.512C1197.851,347.1,1197.473,346.726,1197.473,345.97Z" transform="translate(298.809 359)" fill="#bcbec0"/>
        <rect id="Rectangle_60" data-name="Rectangle 60" width="1.134" height="58.607" transform="translate(1320.838 680.393)" fill="#57a8ac"/>
        <path id="Path_261" data-name="Path 261" d="M1048.12,296.816a25.711,25.711,0,1,1-25.711-25.711A25.738,25.738,0,0,1,1048.12,296.816Z" transform="translate(298.809 359)" fill="#fbc83f"/>
        <path id="Path_262" data-name="Path 262" d="M1042.07,298.706a19.662,19.662,0,0,1-39.323,0v-1.134c.756,10.209,9.075,18.527,19.284,18.527a19.21,19.21,0,0,0,19.284-18.527C1042.07,297.95,1042.07,298.328,1042.07,298.706Z" transform="translate(298.809 359)" fill="#f4c79a"/>
        <path id="Path_263" data-name="Path 263" d="M1042.07,297.572c-.756,10.209-9.075,18.527-19.284,18.527a19.21,19.21,0,0,1-19.284-18.527c.756-10.209,9.075-18.527,19.284-18.527A20.036,20.036,0,0,1,1042.07,297.572Z" transform="translate(298.809 359)" fill="#cf9b50"/>
        <path id="Path_264" data-name="Path 264" d="M1042.07,296.816v1.512a19.319,19.319,0,0,0-38.567,0v-1.512a19.768,19.768,0,0,1,19.662-19.662C1033.373,277.154,1042.07,285.851,1042.07,296.816Z" transform="translate(298.809 359)" fill="#ab835f"/>
        <path id="Path_266" data-name="Path 266" d="M1022.408,350.507s-6.806-21.174-24.955-14.746C988.378,339.164,1022.408,350.507,1022.408,350.507Z" transform="translate(298.809 359)" fill="#57a8ac"/>
        <path id="Path_267" data-name="Path 267" d="M1022.408,350.507s9.453-24.577,24.2-24.577C1061.731,325.93,1022.408,350.507,1022.408,350.507Z" transform="translate(298.809 359)" fill="#57a8ac"/>
        <path id="Path_268" data-name="Path 268" d="M1024.3,348.617a50.153,50.153,0,0,0,9.831-10.209,8.233,8.233,0,0,0,1.891-3.025c.756-1.134,1.134-2.269,2.269-2.647a11.186,11.186,0,0,1,3.781-.756c1.134-.378,2.647-.378,3.4-1.134a9.342,9.342,0,0,1-3.4,1.512c-1.134.378-2.647.378-3.4,1.134-1.134.378-1.512,1.512-2.269,2.647s-1.134,1.891-1.891,3.025a32.648,32.648,0,0,1-4.915,5.294C1028.08,345.592,1026.189,347.1,1024.3,348.617Z" transform="translate(298.809 359)" fill="#bcbec0"/>
        <path id="Path_269" data-name="Path 269" d="M1043.2,335c-1.134,0-1.891-.378-3.025-.378a2.273,2.273,0,0,1-1.512-.378,1.207,1.207,0,0,1-1.134-1.134c0-.756.378-.756.756-1.512.378-.378.378-.756.756-1.134a10.024,10.024,0,0,1,1.891-2.269c-.378.756-1.134,1.512-1.512,2.269a12.424,12.424,0,0,0-1.134,2.269.813.813,0,0,0,.756.756c.378,0,1.134.378,1.512.378A18.412,18.412,0,0,0,1043.2,335Z" transform="translate(298.809 359)" fill="#bcbec0"/>
        <path id="Path_270" data-name="Path 270" d="M1035.642,339.542c-.378.378-1.134.756-1.512,1.134-.378,0-.378.378-.756.378s-.756.378-1.134,0c-.378-.756-.378-1.134-.756-1.891v-1.891c0,.756.378,1.134.378,1.891a2.866,2.866,0,0,0,.756,1.512c.378.378.756,0,1.512-.378A1.964,1.964,0,0,1,1035.642,339.542Z" transform="translate(298.809 359)" fill="#bcbec0"/>
        <path id="Path_271" data-name="Path 271" d="M1021.274,349c-3.781-1.134-7.184-3.4-10.587-5.672s-6.428-4.915-10.209-6.428a45.491,45.491,0,0,1,10.209,6.05C1014.468,345.592,1017.493,347.861,1021.274,349Z" transform="translate(298.809 359)" fill="#bcbec0"/>
        <path id="Path_272" data-name="Path 272" d="M1005.771,334.627c.378.756.756,1.891,1.134,2.647.378.378.378.756.378,1.512,0,.378.378.756.378,1.512a1.207,1.207,0,0,1-1.134,1.134h-1.512c-1.134,0-1.891-.378-3.025-.378h4.537a.813.813,0,0,0,.756-.756c0-.378-.378-.756-.378-1.512,0-.378-.378-1.134-.378-1.512A9.619,9.619,0,0,0,1005.771,334.627Z" transform="translate(298.809 359)" fill="#bcbec0"/>
        <path id="Path_273" data-name="Path 273" d="M1011.443,340.677c.378.756.756,1.134.756,1.891,0,.378.378.756.378,1.134s.378.756.378,1.134a.813.813,0,0,1-.756.756h-1.134c-.756,0-1.134-.378-1.891-.378h3.025c.378,0,.378,0,.378-.378a16.374,16.374,0,0,1-.378-1.891A5.374,5.374,0,0,1,1011.443,340.677Z" transform="translate(298.809 359)" fill="#bcbec0"/>
        <rect id="Rectangle_61" data-name="Rectangle 61" width="2.269" height="69.572" transform="translate(882.988 669.05)" fill="#57a8ac"/>
        <circle id="Ellipse_8" data-name="Ellipse 8" cx="30.626" cy="30.626" r="30.626" transform="matrix(0.229, -0.973, 0.973, 0.229, 847.363, 662.821)" fill="#fbc83f"/>
        <path id="Path_282" data-name="Path 282" d="M608.378,283.582a23.065,23.065,0,0,1-46.129,0V282.07a23.094,23.094,0,0,0,46.129,0Z" transform="translate(298.809 359)" fill="#f4c79a"/>
        <ellipse id="Ellipse_9" data-name="Ellipse 9" cx="23.065" cy="21.93" rx="23.065" ry="21.93" transform="translate(861.057 619.517)" fill="#cf9b50"/>
        <path id="Path_283" data-name="Path 283" d="M608.378,280.935v1.512a23.118,23.118,0,0,0-46.129,0v-1.512a23.065,23.065,0,0,1,46.129,0Z" transform="translate(298.809 359)" fill="#ab835f"/>
        <path id="Path_285" data-name="Path 285" d="M585.313,345.214S577,320.259,555.443,327.821C544.856,331.6,585.313,345.214,585.313,345.214Z" transform="translate(298.809 359)" fill="#57a8ac"/>
        <path id="Path_286" data-name="Path 286" d="M585.313,345.214s11.343-29.493,28.736-29.493C632.2,315.721,585.313,345.214,585.313,345.214Z" transform="translate(298.809 359)" fill="#57a8ac"/>
        <path id="Path_287" data-name="Path 287" d="M587.582,342.567A61.231,61.231,0,0,0,599.3,330.09l2.269-3.4c.756-1.134,1.512-2.647,3.025-3.025,1.512-.756,3.025-.756,4.159-1.134,1.512-.378,3.025-.378,4.159-1.512a8.9,8.9,0,0,1-3.781,1.891c-1.512.378-3.025.378-4.159,1.134a10.192,10.192,0,0,0-2.647,3.025l-2.269,3.4c-1.891,2.269-3.781,4.537-5.672,6.428A45.067,45.067,0,0,1,587.582,342.567Z" transform="translate(298.809 359)" fill="#bcbec0"/>
        <path id="Path_288" data-name="Path 288" d="M609.891,326.308c-1.134,0-2.269-.378-3.4-.378a3.409,3.409,0,0,1-1.891-.378,1.589,1.589,0,0,1-1.512-1.512,1.965,1.965,0,0,1,.756-1.512c.378-.378.378-1.134.756-1.512a16.445,16.445,0,0,1,2.269-2.647c-.756,1.134-1.134,1.891-1.891,3.025-.378,1.134-1.134,1.891-1.512,3.025a.813.813,0,0,0,.756.756c.378,0,1.134.378,1.512.378C607.622,325.93,608.756,325.93,609.891,326.308Z" transform="translate(298.809 359)" fill="#bcbec0"/>
        <path id="Path_289" data-name="Path 289" d="M600.816,331.98c-.756.378-1.134.756-1.891,1.134-.378.378-.756.378-1.134.756-.378,0-1.134.378-1.512,0-.378-.756-.378-1.512-.756-2.269v-2.269a5.374,5.374,0,0,0,.756,2.269c.378.756.378,1.512.756,1.891s1.134,0,1.891-.378C599.682,332.358,600.06,331.98,600.816,331.98Z" transform="translate(298.809 359)" fill="#bcbec0"/>
        <path id="Path_290" data-name="Path 290" d="M584.179,343.323c-4.537-1.134-8.7-3.781-12.478-6.428s-7.562-5.672-12.1-7.94a63.869,63.869,0,0,1,12.1,7.184A41.252,41.252,0,0,0,584.179,343.323Z" transform="translate(298.809 359)" fill="#bcbec0"/>
        <path id="Path_291" data-name="Path 291" d="M565.652,326.308c.378,1.134,1.134,2.269,1.512,3.4.378.378.378,1.134.756,1.512,0,.756.378,1.134.378,1.891s-.756,1.134-1.512,1.134H564.9a11.04,11.04,0,0,1-3.4-.756h4.915c.378,0,1.134-.378.756-.756,0-.378-.378-1.134-.378-1.512,0-.756-.378-1.134-.378-1.891A11.687,11.687,0,0,0,565.652,326.308Z" transform="translate(298.809 359)" fill="#bcbec0"/>
        <path id="Path_292" data-name="Path 292" d="M572.08,333.493l1.134,2.269c0,.378.378.756.378,1.134s.378.756.378,1.134a1.207,1.207,0,0,1-1.134,1.134H571.7c-.756,0-1.512-.378-2.269-.378h3.4a1.32,1.32,0,0,0,.756-.378,5.375,5.375,0,0,0-.756-2.269A24.11,24.11,0,0,0,572.08,333.493Z" transform="translate(298.809 359)" fill="#bcbec0"/>
        <rect id="Rectangle_62" data-name="Rectangle 62" width="2.269" height="93.015" transform="translate(993.773 645.985)" fill="#57a8ac"/>
        <circle id="Ellipse_10" data-name="Ellipse 10" cx="40.457" cy="40.457" r="40.457" transform="matrix(0.242, -0.97, 0.97, 0.242, 945.9, 636.348)" fill="#fbc83f"/>
        <path id="Path_293" data-name="Path 293" d="M726.726,251.443a31,31,0,0,1-62.01,0v-1.891a30.666,30.666,0,0,0,61.254,0A2.444,2.444,0,0,1,726.726,251.443Z" transform="translate(298.809 359)" fill="#f4c79a"/>
        <ellipse id="Ellipse_11" data-name="Ellipse 11" cx="30.627" cy="29.114" rx="30.627" ry="29.114" transform="translate(964.281 579.438)" fill="#cf9b50"/>
        <path id="Path_294" data-name="Path 294" d="M726.726,248.04v2.269a30.689,30.689,0,0,0-61.254,0V248.04a31.145,31.145,0,0,1,31-31C713.114,217.035,726.726,231.025,726.726,248.04Z" transform="translate(298.809 359)" fill="#ab835f"/>
        <path id="Path_296" data-name="Path 296" d="M696.1,333.493s-10.965-33.652-39.7-23.065C641.652,315.343,696.1,333.493,696.1,333.493Z" transform="translate(298.809 359)" fill="#57a8ac"/>
        <path id="Path_297" data-name="Path 297" d="M696.1,333.493s15.124-39.323,38.189-39.323C758.488,294.169,696.1,333.493,696.1,333.493Z" transform="translate(298.809 359)" fill="#57a8ac"/>
        <path id="Path_298" data-name="Path 298" d="M698.746,330.468c5.672-4.915,11.343-10.209,15.5-16.259l3.4-4.537c1.134-1.512,1.891-3.4,3.781-4.159A31.5,31.5,0,0,1,727.1,304c1.891-.378,3.781-.756,5.294-2.269-1.134,1.512-3.4,1.891-5.294,2.269a31.5,31.5,0,0,0-5.672,1.512c-1.891.756-2.647,2.647-3.4,4.159-1.134,1.512-1.891,3.025-3.025,4.537a82.793,82.793,0,0,1-16.259,16.259Z" transform="translate(298.809 359)" fill="#bcbec0"/>
        <path id="Path_299" data-name="Path 299" d="M728.617,308.537a18.979,18.979,0,0,1-4.537-.756c-.756,0-1.512-.378-2.269-.378a2.026,2.026,0,0,1-1.891-1.891c0-.756.756-1.512.756-2.269.378-.756.756-1.134,1.134-1.891a26.662,26.662,0,0,1,2.647-3.4c-.756,1.134-1.512,2.647-2.269,3.781a17.662,17.662,0,0,0-1.891,3.781q0,.567,1.134,1.134a4.8,4.8,0,0,0,2.269.378A35.124,35.124,0,0,0,728.617,308.537Z" transform="translate(298.809 359)" fill="#bcbec0"/>
        <path id="Path_300" data-name="Path 300" d="M716.9,315.721a6.094,6.094,0,0,1-2.647,1.512c-.378.378-.756.378-1.512.756a1.688,1.688,0,0,1-1.891,0,4.547,4.547,0,0,1-.756-3.025c0-1.134-.378-1.891-.378-3.025.378.756.378,1.891.756,2.647s.756,1.891,1.134,2.647c.378.378,1.512-.378,2.269-.756A8.9,8.9,0,0,0,716.9,315.721Z" transform="translate(298.809 359)" fill="#bcbec0"/>
        <path id="Path_301" data-name="Path 301" d="M694.209,331.224c-6.05-1.512-11.721-5.294-16.637-8.7-5.294-3.781-10.209-7.562-15.881-10.587,6.05,2.269,10.965,6.05,16.259,9.831A63.136,63.136,0,0,0,694.209,331.224Z" transform="translate(298.809 359)" fill="#bcbec0"/>
        <path id="Path_302" data-name="Path 302" d="M669.632,308.159c.756,1.512,1.134,3.025,1.891,4.537.378.756.378,1.512.756,2.269a5.465,5.465,0,0,1,.756,2.647,2.026,2.026,0,0,1-1.891,1.891,4.8,4.8,0,0,1-2.269-.378c-1.512-.378-3.025-.378-4.537-.756h6.806a1,1,0,0,0,1.134-1.134c0-.756-.378-1.512-.378-2.269-.378-.756-.378-1.512-.756-2.269A16.007,16.007,0,0,1,669.632,308.159Z" transform="translate(298.809 359)" fill="#bcbec0"/>
        <path id="Path_303" data-name="Path 303" d="M678.328,317.99c.378,1.134,1.134,1.891,1.512,3.025.378.378.378,1.134.756,1.512a16.376,16.376,0,0,1,.378,1.891c0,.756-.756,1.134-1.512,1.134s-1.134,0-1.512-.378a8.9,8.9,0,0,1-3.025-.756h4.537a.813.813,0,0,0,.756-.756c0-.756-.756-1.891-.756-3.025C678.706,319.881,678.706,319.124,678.328,317.99Z" transform="translate(298.809 359)" fill="#bcbec0"/>
        <path id="Path_304" data-name="Path 304" d="M695.721,352.4s-1.891-11.721-12.1-9.831C678.328,343.7,695.721,352.4,695.721,352.4Z" transform="translate(298.809 359)" fill="#57a8ac"/>
        <path id="Path_305" data-name="Path 305" d="M695.721,352.4s7.184-12.478,15.124-11.343S695.721,352.4,695.721,352.4Z" transform="translate(298.809 359)" fill="#57a8ac"/>
        <path id="Path_306" data-name="Path 306" d="M696.856,351.642a38.176,38.176,0,0,0,6.05-4.915l1.512-1.512c.378-.378.756-1.134,1.512-1.134.756-.378,1.512,0,1.891-.378a2.833,2.833,0,0,0,1.891-.378,2.833,2.833,0,0,1-1.891.378,2.833,2.833,0,0,0-1.891.378,5.219,5.219,0,0,0-1.512,1.134c-.378.378-.756,1.134-1.134,1.512a21.608,21.608,0,0,1-3.025,2.647Z" transform="translate(298.809 359)" fill="#bcbec0"/>
        <path id="Path_307" data-name="Path 307" d="M708.2,345.592c-.378,0-1.134-.378-1.512-.378s-.378,0-.756-.378c-.378,0-.756-.378-.378-.756,0-.378.378-.378.378-.756s.378-.378.378-.756l1.134-1.134-1.134,1.134c-.378.378-.756.756-.756,1.134a.37.37,0,0,0,.378.378c.378,0,.378,0,.756.378A2.026,2.026,0,0,0,708.2,345.592Z" transform="translate(298.809 359)" fill="#bcbec0"/>
        <path id="Path_308" data-name="Path 308" d="M703.662,347.483a1.32,1.32,0,0,0-.756.378.37.37,0,0,0-.378.378h-.756V347.1c0,.378,0,.756.378.756h.756C703.284,347.483,703.284,347.483,703.662,347.483Z" transform="translate(298.809 359)" fill="#bcbec0"/>
        <path id="Path_309" data-name="Path 309" d="M695.343,351.642a17.043,17.043,0,0,1-5.294-3.781,26.034,26.034,0,0,0-4.915-4.159,26.037,26.037,0,0,1,4.915,4.159C691.94,349,693.453,350.507,695.343,351.642Z" transform="translate(298.809 359)" fill="#bcbec0"/>
        <path id="Path_310" data-name="Path 310" d="M688.159,342.567c0,.378.378,1.134.378,1.512v1.512c0,.378-.378.378-.756.378s-.378,0-.756-.378c-.378,0-1.134-.378-1.512-.378a2.273,2.273,0,0,1,1.512.378h.756c.378,0,.378,0,.378-.378V343.7C688.537,343.7,688.159,342.945,688.159,342.567Z" transform="translate(298.809 359)" fill="#bcbec0"/>
        <path id="Path_311" data-name="Path 311" d="M690.806,346.348c0,.378.378.756.378,1.134v1.134a.37.37,0,0,1-.378.378h-.378c-.378,0-.756-.378-1.134-.378h1.891v-1.134A1.389,1.389,0,0,1,690.806,346.348Z" transform="translate(298.809 359)" fill="#bcbec0"/>
        <rect id="Rectangle_63" data-name="Rectangle 63" width="2.269" height="139.522" transform="translate(1276.221 599.478)" fill="#57a8ac"/>
        <circle id="Ellipse_12" data-name="Ellipse 12" cx="60.873" cy="60.873" r="60.873" transform="translate(1207.527 591.386) rotate(-80.909)" fill="#fbc83f"/>
        <path id="Path_312" data-name="Path 312" d="M1024.677,187.164a46.129,46.129,0,0,1-92.259,0v-2.647A46.339,46.339,0,0,0,978.547,228c24.577,0,44.995-19.284,46.129-43.483Z" transform="translate(298.809 359)" fill="#f4c79a"/>
        <ellipse id="Ellipse_13" data-name="Ellipse 13" cx="46.129" cy="43.483" rx="46.129" ry="43.483" transform="translate(1231.227 500.035)" fill="#cf9b50"/>
        <path id="Path_313" data-name="Path 313" d="M1024.677,181.871v3.4a46.235,46.235,0,0,0-92.259,0v-3.4a46.129,46.129,0,0,1,92.259,0Z" transform="translate(298.809 359)" fill="#ab835f"/>
        <path id="Path_315" data-name="Path 315" d="M978.547,310.05s-16.259-50.289-59.363-34.786C897.254,283.2,978.547,310.05,978.547,310.05Z" transform="translate(298.809 359)" fill="#57a8ac"/>
        <path id="Path_316" data-name="Path 316" d="M978.547,310.05s22.687-58.985,57.473-58.985C1071.94,251.443,978.547,310.05,978.547,310.05Z" transform="translate(298.809 359)" fill="#57a8ac"/>
        <path id="Path_317" data-name="Path 317" d="M982.706,305.512c8.7-7.562,17.015-15.5,23.443-24.577a76.656,76.656,0,0,0,4.915-6.806c1.512-2.269,3.025-4.915,5.672-6.428s5.672-1.512,8.7-2.269c3.025-.378,6.05-1.134,7.94-3.025-1.891,2.269-4.915,3.025-7.94,3.781s-5.672,1.134-8.318,2.269-3.781,3.781-5.294,6.05a80.968,80.968,0,0,1-4.915,7.184,120.041,120.041,0,0,1-11.343,12.856A122.364,122.364,0,0,1,982.706,305.512Z" transform="translate(298.809 359)" fill="#bcbec0"/>
        <path id="Path_318" data-name="Path 318" d="M1027.323,273c-2.269-.378-4.537-.378-7.184-.756a11.041,11.041,0,0,1-3.4-.756c-1.134-.378-2.647-1.134-2.647-2.647a9.344,9.344,0,0,1,1.512-3.4,13.267,13.267,0,0,1,1.891-3.025,28.552,28.552,0,0,1,4.159-5.294l-3.4,5.672a24.8,24.8,0,0,0-2.647,5.672c0,.756.756,1.512,1.891,1.891s2.269.378,3.4.756A58.335,58.335,0,0,1,1027.323,273Z" transform="translate(298.809 359)" fill="#bcbec0"/>
        <path id="Path_319" data-name="Path 319" d="M1009.552,283.582c-1.134.756-2.647,1.891-3.781,2.647-.756.378-1.134.756-1.891,1.134s-1.891.756-2.647-.378a28.72,28.72,0,0,1-1.512-4.159,18.409,18.409,0,0,1-.378-4.537c.378,1.512.756,2.647,1.134,4.159.378,1.134.756,3.025,1.512,3.781.378.756,2.269-.378,3.4-.756C1006.905,284.716,1008.04,284.338,1009.552,283.582Z" transform="translate(298.809 359)" fill="#bcbec0"/>
        <path id="Path_320" data-name="Path 320" d="M975.9,306.647c-9.075-2.269-17.393-7.562-25.333-13.234s-15.5-11.343-23.821-15.5c9.075,3.4,16.637,9.075,24.577,14.746C958.886,297.95,966.826,303.622,975.9,306.647Z" transform="translate(298.809 359)" fill="#bcbec0"/>
        <path id="Path_321" data-name="Path 321" d="M938.846,272.617a50.5,50.5,0,0,1,2.647,6.806l1.134,3.4c.378,1.134,1.134,2.269,1.134,3.781s-1.891,2.647-3.025,2.647-2.269-.378-3.4-.378l-6.806-1.134a41.1,41.1,0,0,1,6.806.378c1.134,0,2.269.378,3.4.378a1.73,1.73,0,0,0,1.891-1.512,14.032,14.032,0,0,0-.756-3.4l-1.134-3.4A36.773,36.773,0,0,0,938.846,272.617Z" transform="translate(298.809 359)" fill="#bcbec0"/>
        <path id="Path_322" data-name="Path 322" d="M952.08,286.985a23.131,23.131,0,0,1,1.891,4.537,5.373,5.373,0,0,1,.756,2.269,5.465,5.465,0,0,1,.756,2.647c0,1.134-1.512,1.891-2.269,1.891a4.094,4.094,0,0,1-2.269-.378c-1.512-.378-3.025-.378-4.537-.756h7.184c.756,0,1.134-.378,1.134-.756a26.411,26.411,0,0,0-1.134-4.537A35.118,35.118,0,0,1,952.08,286.985Z" transform="translate(298.809 359)" fill="#bcbec0"/>
        <path id="Path_323" data-name="Path 323" d="M978.925,339.92s8.318-24.955,29.871-17.393C1019.383,326.687,978.925,339.92,978.925,339.92Z" transform="translate(298.809 359)" fill="#57a8ac"/>
        <path id="Path_324" data-name="Path 324" d="M978.925,339.92s-11.343-29.493-28.736-29.493C932.04,310.806,978.925,339.92,978.925,339.92Z" transform="translate(298.809 359)" fill="#57a8ac"/>
        <path id="Path_325" data-name="Path 325" d="M976.657,337.652a61.228,61.228,0,0,1-11.721-12.478l-2.269-3.4c-.756-1.134-1.512-2.647-3.025-3.025-1.512-.756-3.025-.756-4.159-1.134-1.512-.378-3.025-.378-4.159-1.512a8.9,8.9,0,0,0,3.781,1.891c1.512.378,3.025.378,4.159,1.134a10.192,10.192,0,0,1,2.647,3.025l2.269,3.4c1.891,2.269,3.781,4.537,5.672,6.428A45.079,45.079,0,0,0,976.657,337.652Z" transform="translate(298.809 359)" fill="#bcbec0"/>
        <path id="Path_326" data-name="Path 326" d="M954.348,321.393c1.134,0,2.269-.378,3.4-.378a3.409,3.409,0,0,0,1.891-.378,1.589,1.589,0,0,0,1.512-1.512,1.964,1.964,0,0,0-.756-1.512c-.378-.378-.378-1.134-.756-1.512a16.437,16.437,0,0,0-2.269-2.647c.756,1.134,1.134,1.891,1.891,3.025a22.448,22.448,0,0,1,1.512,3.025.813.813,0,0,1-.756.756c-.378,0-1.134.378-1.512.378A11.672,11.672,0,0,0,954.348,321.393Z" transform="translate(298.809 359)" fill="#bcbec0"/>
        <path id="Path_327" data-name="Path 327" d="M963.045,326.687c.756.378,1.134.756,1.891,1.134.378.378.756.378,1.134.756.378,0,1.134.378,1.512,0,.378-.756.378-1.512.756-2.269V324.04a5.375,5.375,0,0,1-.756,2.269c-.378.756-.378,1.512-.756,1.891s-1.134,0-1.891-.378A8.264,8.264,0,0,0,963.045,326.687Z" transform="translate(298.809 359)" fill="#bcbec0"/>
        <path id="Path_328" data-name="Path 328" d="M980.06,338.408c4.537-1.134,8.7-3.781,12.478-6.428s7.562-5.672,12.1-7.94a63.87,63.87,0,0,0-12.1,7.184C988.378,333.871,984.6,336.517,980.06,338.408Z" transform="translate(298.809 359)" fill="#bcbec0"/>
        <path id="Path_329" data-name="Path 329" d="M998.587,321.015c-.378,1.134-1.134,2.269-1.512,3.4-.378.378-.378,1.134-.756,1.512,0,.756-.378,1.134-.378,1.891s.756,1.134,1.512,1.134h1.891a11.04,11.04,0,0,0,3.4-.756h-4.915c-.378,0-1.134-.378-.756-.756,0-.378.378-1.134.378-1.512,0-.756.378-1.134.378-1.891C997.831,323.662,998.209,322.527,998.587,321.015Z" transform="translate(298.809 359)" fill="#bcbec0"/>
        <path id="Path_330" data-name="Path 330" d="M992.159,328.577l-1.134,2.269c0,.378-.378.756-.378,1.134s-.378.756-.378,1.134a1.207,1.207,0,0,0,1.134,1.134h1.134c.756,0,1.512-.378,2.269-.378h-3.4a1.32,1.32,0,0,1-.756-.378,5.374,5.374,0,0,1,.756-2.269A24.108,24.108,0,0,1,992.159,328.577Z" transform="translate(298.809 359)" fill="#bcbec0"/>
        <rect id="Rectangle_64" data-name="Rectangle 64" width="2.269" height="162.587" transform="translate(1448.262 576.413)" fill="#57a8ac"/>
        <circle id="Ellipse_14" data-name="Ellipse 14" cx="71.085" cy="71.085" r="71.085" transform="translate(1378.311 436.891)" fill="#fbc83f"/>
        <path id="Path_331" data-name="Path 331" d="M1204.657,155.025a54.07,54.07,0,1,1-108.139,0V152a54,54,0,0,0,54.07,51.045c29.114,0,52.179-22.687,54.07-51.045Z" transform="translate(298.809 359)" fill="#f4c79a"/>
        <ellipse id="Ellipse_15" data-name="Ellipse 15" cx="54.07" cy="51.045" rx="54.07" ry="51.045" transform="translate(1395.326 459.955)" fill="#cf9b50"/>
        <path id="Path_332" data-name="Path 332" d="M1204.657,148.975v3.781a53.807,53.807,0,0,0-107.383,0v-3.781a54.058,54.058,0,0,1,54.07-54.07C1180.458,94.905,1204.657,119.1,1204.657,148.975Z" transform="translate(298.809 359)" fill="#ab835f"/>
        <path id="Path_334" data-name="Path 334" d="M1150.587,298.706s-18.906-58.607-69.194-40.458C1055.682,266.945,1150.587,298.706,1150.587,298.706Z" transform="translate(298.809 359)" fill="#57a8ac"/>
        <path id="Path_335" data-name="Path 335" d="M1150.587,298.706s26.468-68.816,67.3-68.816C1259.861,229.891,1150.587,298.706,1150.587,298.706Z" transform="translate(298.809 359)" fill="#57a8ac"/>
        <path id="Path_336" data-name="Path 336" d="M1155.5,293.035c10.209-8.7,19.662-18.149,27.224-28.736l5.672-7.94c1.891-2.647,3.4-6.05,6.806-7.562,3.025-1.512,6.806-1.891,10.209-2.647,3.4-.378,6.806-1.134,9.453-3.781-2.269,2.647-6.05,3.4-9.075,4.159-3.4.756-6.806,1.134-9.831,2.647s-4.537,4.537-6.05,7.184c-1.891,2.647-3.781,5.672-5.672,8.318a164.722,164.722,0,0,1-13.234,15.124A125.149,125.149,0,0,1,1155.5,293.035Z" transform="translate(298.809 359)" fill="#bcbec0"/>
        <path id="Path_337" data-name="Path 337" d="M1207.682,255.224c-2.647-.378-5.293-.756-8.318-1.134-1.512-.378-2.647-.378-4.159-.756-1.134-.378-3.025-1.134-3.025-3.025a39.229,39.229,0,0,1,1.512-3.781c.756-1.134,1.134-2.269,1.891-3.4a72.681,72.681,0,0,1,4.915-6.428c-1.512,2.269-2.647,4.537-4.159,6.806-1.134,2.269-2.647,4.537-3.025,6.806,0,.756.756,1.512,2.269,1.891,1.134.378,2.647.378,3.781.756C1202.388,253.711,1205.035,254.468,1207.682,255.224Z" transform="translate(298.809 359)" fill="#bcbec0"/>
        <path id="Path_338" data-name="Path 338" d="M1186.885,267.7c-1.512,1.134-3.025,1.891-4.537,3.025a7.912,7.912,0,0,0-2.269,1.512,2.917,2.917,0,0,1-3.4-.378c-1.134-1.891-1.134-3.4-1.512-4.915a21.556,21.556,0,0,1-.378-4.915,24.461,24.461,0,0,0,1.512,4.915c.378,1.512,1.134,3.4,1.512,4.537.756.756,2.647-.378,4.159-1.134C1183.483,268.836,1185.373,268.458,1186.885,267.7Z" transform="translate(298.809 359)" fill="#bcbec0"/>
        <path id="Path_339" data-name="Path 339" d="M1147.562,294.547c-10.587-2.647-20.418-9.075-29.493-15.5s-17.771-13.234-27.98-18.149c10.209,4.159,19.662,10.965,28.736,17.015C1127.522,284.338,1136.975,290.766,1147.562,294.547Z" transform="translate(298.809 359)" fill="#bcbec0"/>
        <path id="Path_340" data-name="Path 340" d="M1104.458,254.468c1.134,2.647,2.269,5.294,3.4,7.562.378,1.134,1.134,2.647,1.512,3.781.378,1.512,1.134,2.647,1.134,4.159,0,1.891-1.891,3.025-3.4,3.025s-2.647-.378-4.159-.378A58.7,58.7,0,0,1,1095,271.1a55.842,55.842,0,0,1,7.94.378c1.134,0,2.647.378,3.781.378a2.117,2.117,0,0,0,2.269-1.891,7.3,7.3,0,0,0-1.134-3.781c-.378-1.512-.756-2.647-1.134-4.159C1105.97,260.139,1105.214,257.114,1104.458,254.468Z" transform="translate(298.809 359)" fill="#bcbec0"/>
        <path id="Path_341" data-name="Path 341" d="M1119.582,271.483c.756,1.891,1.512,3.4,2.269,5.294.378.756.756,1.891,1.134,2.647a7.124,7.124,0,0,1,.756,3.025,2.5,2.5,0,0,1-2.647,2.269,5.606,5.606,0,0,1-2.647-.378c-1.891-.378-3.781-.756-5.294-1.134h8.318c.756,0,1.512-.378,1.512-1.134,0-1.512-1.134-3.4-1.512-5.294A12.7,12.7,0,0,1,1119.582,271.483Z" transform="translate(298.809 359)" fill="#bcbec0"/>
        <path id="Path_342" data-name="Path 342" d="M1150.209,333.114s0-26.468,22.687-25.711C1184.617,307.4,1150.209,333.114,1150.209,333.114Z" transform="translate(298.809 359)" fill="#57a8ac"/>
        <path id="Path_343" data-name="Path 343" d="M1150.209,333.114s-20.04-24.2-36.677-18.905C1096.517,319.881,1150.209,333.114,1150.209,333.114Z" transform="translate(298.809 359)" fill="#57a8ac"/>
        <path id="Path_344" data-name="Path 344" d="M1147.562,331.6c-5.294-2.269-10.587-4.537-15.124-7.94a20.779,20.779,0,0,1-3.4-2.647c-1.134-.756-2.269-1.891-3.781-2.269a9.31,9.31,0,0,0-4.537.378,5.2,5.2,0,0,1-4.159-.378,5.357,5.357,0,0,0,4.159.378c1.512,0,3.025-.378,4.159-.378a6.8,6.8,0,0,1,3.4,2.269c1.134.756,2.269,1.891,3.4,2.647a48.433,48.433,0,0,0,7.562,4.159A31.788,31.788,0,0,0,1147.562,331.6Z" transform="translate(298.809 359)" fill="#bcbec0"/>
        <path id="Path_345" data-name="Path 345" d="M1121.094,322.905a22.455,22.455,0,0,0,3.025-1.512c.378-.378,1.134-.378,1.512-.756s1.134-1.134.756-1.891-.756-.756-1.134-1.512l-1.134-1.134a8.235,8.235,0,0,0-3.025-1.891c.756.756,1.891,1.512,2.647,2.269s1.891,1.512,2.269,2.269c0,.378,0,.756-.756,1.134a2.867,2.867,0,0,1-1.512.756A5.084,5.084,0,0,1,1121.094,322.905Z" transform="translate(298.809 359)" fill="#bcbec0"/>
        <path id="Path_346" data-name="Path 346" d="M1131.3,325.552c.756.378,1.512.378,2.269.756a1.389,1.389,0,0,1,1.134.378c.378,0,1.134,0,1.134-.378V324.04c0-.756-.378-1.512-.378-2.269v4.159c0,.378-1.134.378-1.891,0A4.8,4.8,0,0,0,1131.3,325.552Z" transform="translate(298.809 359)" fill="#bcbec0"/>
        <path id="Path_347" data-name="Path 347" d="M1150.965,330.846c4.159-2.647,7.184-6.428,9.831-10.209a128.569,128.569,0,0,1,8.7-11.343c-3.781,3.025-6.428,7.184-9.453,10.965A30.788,30.788,0,0,1,1150.965,330.846Z" transform="translate(298.809 359)" fill="#bcbec0"/>
        <path id="Path_348" data-name="Path 348" d="M1163.065,308.915c0,1.134-.378,2.269-.378,3.4V316.1a1.381,1.381,0,0,0,1.891.756c.756-.378,1.134-.378,1.512-.756,1.134-.378,1.891-1.134,3.025-1.512a26.045,26.045,0,0,0-3.025,1.134,2.866,2.866,0,0,0-1.512.756c-.378,0-1.134,0-1.134-.378v-3.4A12.861,12.861,0,0,1,1163.065,308.915Z" transform="translate(298.809 359)" fill="#bcbec0"/>
        <path id="Path_349" data-name="Path 349" d="M1159.284,317.99c0,.756-.378,1.512-.378,2.647v2.647a.935.935,0,0,0,1.512.378c.378,0,.756-.378,1.134-.378a8.262,8.262,0,0,0,1.891-1.134c-.756.378-1.512.378-2.269.756-.378,0-.756.378-1.134.378s-.756,0-.756-.378v-2.269C1159.284,319.5,1159.284,318.746,1159.284,317.99Z" transform="translate(298.809 359)" fill="#bcbec0"/>
        <rect id="Rectangle_65" data-name="Rectangle 65" width="2.269" height="116.08" transform="translate(1124.977 622.92)" fill="#57a8ac"/>
        <circle id="Ellipse_16" data-name="Ellipse 16" cx="50.668" cy="50.668" r="50.668" transform="translate(1064.756 611.179) rotate(-76.503)" fill="#fbc83f"/>
        <path id="Path_350" data-name="Path 350" d="M865.871,219.3a38.567,38.567,0,0,1-77.134,0v-2.269a38.3,38.3,0,0,0,38.567,36.3,38.836,38.836,0,0,0,38.567-36.3Z" transform="translate(298.809 359)" fill="#f4c79a"/>
        <ellipse id="Ellipse_17" data-name="Ellipse 17" cx="38.567" cy="36.299" rx="38.567" ry="36.299" transform="translate(1087.545 539.736)" fill="#cf9b50"/>
        <path id="Path_351" data-name="Path 351" d="M865.871,214.766v2.647a38.665,38.665,0,0,0-77.134,0v-2.647a38.567,38.567,0,1,1,77.134,0Z" transform="translate(298.809 359)" fill="#ab835f"/>
        <path id="Path_353" data-name="Path 353" d="M827.3,321.771s-13.612-41.97-49.532-29.114C759.622,299.463,827.3,321.771,827.3,321.771Z" transform="translate(298.809 359)" fill="#57a8ac"/>
        <path id="Path_354" data-name="Path 354" d="M827.3,321.771s18.905-49.154,48.02-49.154C905.194,272.617,827.3,321.771,827.3,321.771Z" transform="translate(298.809 359)" fill="#57a8ac"/>
        <path id="Path_355" data-name="Path 355" d="M830.706,317.99a125.644,125.644,0,0,0,19.662-20.418c1.512-1.891,2.647-3.781,4.159-5.672,1.134-1.891,2.269-4.159,4.915-5.294a25.28,25.28,0,0,1,7.184-1.891c2.269-.378,4.915-.756,6.806-2.647-1.512,1.891-4.159,2.647-6.428,3.025s-4.915.756-6.806,1.891c-2.269,1.134-3.025,3.025-4.537,5.294a54.1,54.1,0,0,1-4.159,5.672,125.888,125.888,0,0,1-9.453,10.587C838.269,311.94,834.488,314.965,830.706,317.99Z" transform="translate(298.809 359)" fill="#bcbec0"/>
        <path id="Path_356" data-name="Path 356" d="M867.761,290.766c-1.891-.378-3.781-.378-5.672-.756-1.134,0-1.891-.378-3.025-.378-.756-.378-2.269-.756-2.269-2.269a5.645,5.645,0,0,1,1.134-2.647,7.91,7.91,0,0,1,1.512-2.269l3.4-4.537a55.976,55.976,0,0,0-3.025,4.915,28.518,28.518,0,0,0-2.269,4.915c0,.756.756,1.134,1.512,1.512s1.891.378,2.647.756A10.779,10.779,0,0,1,867.761,290.766Z" transform="translate(298.809 359)" fill="#bcbec0"/>
        <path id="Path_357" data-name="Path 357" d="M853.015,299.841c-1.134.756-1.891,1.512-3.025,2.269-.378.378-1.134.756-1.512,1.134a1.823,1.823,0,0,1-2.269-.378,14.4,14.4,0,0,1-1.134-3.781,11.655,11.655,0,0,1-.378-3.781l1.134,3.4a26.05,26.05,0,0,0,1.134,3.025c.378.756,1.891-.378,3.025-.756A26.035,26.035,0,0,1,853.015,299.841Z" transform="translate(298.809 359)" fill="#bcbec0"/>
        <path id="Path_358" data-name="Path 358" d="M825.035,318.746c-7.562-1.891-14.368-6.428-21.174-10.965-6.428-4.537-12.856-9.453-20.04-13.234,7.562,3.025,13.99,7.562,20.418,12.1C810.667,311.562,817.473,316.1,825.035,318.746Z" transform="translate(298.809 359)" fill="#bcbec0"/>
        <path id="Path_359" data-name="Path 359" d="M794.03,290.388l2.269,5.672c.378.756.756,1.891,1.134,2.647a8.9,8.9,0,0,1,.756,3.025A2.415,2.415,0,0,1,795.92,304a8.326,8.326,0,0,1-3.025-.378l-5.672-1.134a28.618,28.618,0,0,1,5.672.378c.756,0,1.891.378,2.647,0,.756,0,1.512-.378,1.512-1.134a7.01,7.01,0,0,0-.756-2.647,8.9,8.9,0,0,1-.756-3.025A31.5,31.5,0,0,0,794.03,290.388Z" transform="translate(298.809 359)" fill="#bcbec0"/>
        <path id="Path_360" data-name="Path 360" d="M804.995,302.488a15.8,15.8,0,0,1,1.512,3.781c.378.756.378,1.134.756,1.891a4.053,4.053,0,0,1,.756,2.269c0,1.134-1.134,1.512-1.891,1.512a2.833,2.833,0,0,1-1.891-.378c-1.134-.378-2.647-.378-3.781-.756h5.672c.756,0,1.134-.378,1.134-.756a14.4,14.4,0,0,0-1.134-3.781C805.751,305.134,805.373,303.622,804.995,302.488Z" transform="translate(298.809 359)" fill="#bcbec0"/>
        <path id="Path_361" data-name="Path 361" d="M827.682,353.91s4.915-14.746,17.393-10.209C851.5,345.97,827.682,353.91,827.682,353.91Z" transform="translate(298.809 359)" fill="#57a8ac"/>
        <path id="Path_362" data-name="Path 362" d="M827.682,353.91s-6.806-17.393-17.015-17.393C800.08,336.517,827.682,353.91,827.682,353.91Z" transform="translate(298.809 359)" fill="#57a8ac"/>
        <path id="Path_363" data-name="Path 363" d="M826.169,352.4a40.488,40.488,0,0,1-6.806-7.184,8.25,8.25,0,0,0-1.512-1.891,3.106,3.106,0,0,0-1.891-1.891,24.1,24.1,0,0,0-2.647-.756,4.054,4.054,0,0,1-2.269-.756c.756.756,1.512.756,2.269,1.134a7.011,7.011,0,0,1,2.647.756,3.775,3.775,0,0,1,1.512,1.891,3.775,3.775,0,0,0,1.512,1.891,34.1,34.1,0,0,0,3.4,3.781A26.493,26.493,0,0,1,826.169,352.4Z" transform="translate(298.809 359)" fill="#bcbec0"/>
        <path id="Path_364" data-name="Path 364" d="M812.935,342.567a2.833,2.833,0,0,0,1.891-.378,1.389,1.389,0,0,0,1.134-.378.813.813,0,0,0,.756-.756c0-.378-.378-.756-.378-1.134a1.32,1.32,0,0,0-.378-.756c-.378-.378-.756-1.134-1.134-1.512a8.263,8.263,0,0,1,1.134,1.891,2.888,2.888,0,0,1,.756,1.891.37.37,0,0,1-.378.378,1.389,1.389,0,0,0-1.134.378C814.448,342.189,813.692,342.567,812.935,342.567Z" transform="translate(298.809 359)" fill="#bcbec0"/>
        <path id="Path_365" data-name="Path 365" d="M818.229,345.97c.378.378.756.378,1.134.756.378,0,.378.378.756.378h.756a1.389,1.389,0,0,0,.378-1.134v-1.134c0,.378-.378.756-.378,1.134s-.378.756-.378,1.134-.756,0-1.134-.378C819.363,346.348,818.607,345.97,818.229,345.97Z" transform="translate(298.809 359)" fill="#bcbec0"/>
        <path id="Path_366" data-name="Path 366" d="M828.438,352.776A28.341,28.341,0,0,0,836,349c2.269-1.512,4.537-3.4,7.184-4.537A44.55,44.55,0,0,0,836,348.617,75,75,0,0,1,828.438,352.776Z" transform="translate(298.809 359)" fill="#bcbec0"/>
        <path id="Path_367" data-name="Path 367" d="M839.4,342.567c-.378.756-.378,1.134-.756,1.891,0,.378-.378.756-.378,1.134s-.378.756-.378,1.134a.813.813,0,0,0,.756.756h1.134a16.379,16.379,0,0,0,1.891-.378h-3.025c-.378,0-.378,0-.378-.378a1.389,1.389,0,0,1,.378-1.134c0-.378.378-.756.378-1.134A4.111,4.111,0,0,1,839.4,342.567Z" transform="translate(298.809 359)" fill="#bcbec0"/>
        <path id="Path_368" data-name="Path 368" d="M835.244,346.726c-.378.378-.378.756-.756,1.512,0,.378,0,.378-.378.756,0,.378-.378.378-.378.756s.378.756.756.378h.756a2.858,2.858,0,0,0,1.512-.378h-2.269c-.378,0-.378,0-.378-.378s.378-.756.378-1.512C835.244,347.861,835.244,347.483,835.244,346.726Z" transform="translate(298.809 359)" fill="#bcbec0"/>
        <rect id="Rectangle_66" data-name="Rectangle 66" width="1.512" height="83.184" transform="translate(1393.057 655.438)" fill="#57a8ac"/>
        <circle id="Ellipse_18" data-name="Ellipse 18" cx="36.299" cy="36.299" r="36.299" transform="matrix(0.773, -0.635, 0.635, 0.773, 1342.742, 615.576)" fill="#fbc83f"/>
        <path id="Path_369" data-name="Path 369" d="M1122.607,264.677a27.6,27.6,0,1,1-55.2,0v-1.512a27.646,27.646,0,0,0,55.2,0Z" transform="translate(298.809 359)" fill="#f4c79a"/>
        <path id="Path_370" data-name="Path 370" d="M1122.607,263.164a27.646,27.646,0,0,1-55.2,0,27.646,27.646,0,0,1,55.2,0Z" transform="translate(298.809 359)" fill="#cf9b50"/>
        <path id="Path_371" data-name="Path 371" d="M1122.607,261.652v1.891a27.671,27.671,0,0,0-55.2,0v-1.891a27.6,27.6,0,1,1,55.2,0Z" transform="translate(298.809 359)" fill="#ab835f"/>
        <path id="Path_373" data-name="Path 373" d="M1095.005,338.408s-9.831-29.871-35.542-20.8C1046.607,322.149,1095.005,338.408,1095.005,338.408Z" transform="translate(298.809 359)" fill="#57a8ac"/>
        <path id="Path_374" data-name="Path 374" d="M1095.005,338.408s13.612-35.164,34.408-35.164C1150.965,303.244,1095.005,338.408,1095.005,338.408Z" transform="translate(298.809 359)" fill="#57a8ac"/>
        <path id="Path_375" data-name="Path 375" d="M1097.652,335.383a85.417,85.417,0,0,0,13.99-14.746c1.134-1.512,1.891-2.647,3.025-4.159a8.276,8.276,0,0,1,3.4-3.781,12.077,12.077,0,0,1,5.294-1.134,11.141,11.141,0,0,0,4.915-1.891,10.3,10.3,0,0,1-4.537,2.269,18.719,18.719,0,0,0-4.915,1.512c-1.512.756-2.269,2.269-3.025,3.781a28.862,28.862,0,0,1-3.025,4.159,42.483,42.483,0,0,1-6.806,7.562C1102.945,331.224,1100.3,333.493,1097.652,335.383Z" transform="translate(298.809 359)" fill="#bcbec0"/>
        <path id="Path_376" data-name="Path 376" d="M1124.119,316.1c-1.512,0-2.647-.378-4.159-.378-.756,0-1.512-.378-2.269-.378a1.626,1.626,0,0,1-1.512-1.512,2.888,2.888,0,0,1,.756-1.891c.378-.756.756-1.134,1.134-1.891a10.192,10.192,0,0,1,2.647-3.025,15.324,15.324,0,0,0-1.891,3.4,6.794,6.794,0,0,0-1.512,3.4q0,.567,1.134,1.134a4.111,4.111,0,0,0,1.891.378A13.434,13.434,0,0,1,1124.119,316.1Z" transform="translate(298.809 359)" fill="#bcbec0"/>
        <path id="Path_377" data-name="Path 377" d="M1113.532,322.527c-.756.378-1.512,1.134-2.269,1.512-.378.378-.756.378-1.134.756a1.15,1.15,0,0,1-1.512,0,9.621,9.621,0,0,1-.756-2.647c0-.756-.378-1.891-.378-2.647a24.092,24.092,0,0,1,.756,2.647c.378.756.378,1.891.756,2.269s1.134,0,1.891-.378A21.68,21.68,0,0,1,1113.532,322.527Z" transform="translate(298.809 359)" fill="#bcbec0"/>
        <path id="Path_378" data-name="Path 378" d="M1093.493,336.139c-5.672-1.512-10.587-4.537-15.124-7.94A94.33,94.33,0,0,0,1064,318.746c5.293,1.891,9.831,5.672,14.746,8.7C1083.284,330.846,1087.821,334.249,1093.493,336.139Z" transform="translate(298.809 359)" fill="#bcbec0"/>
        <path id="Path_379" data-name="Path 379" d="M1071.184,315.721a15.8,15.8,0,0,1,1.512,3.781c.378.756.378,1.512.756,1.891a4.054,4.054,0,0,1,.756,2.269c0,1.134-1.134,1.512-1.891,1.512a2.834,2.834,0,0,1-1.891-.378,16.081,16.081,0,0,1-4.159-.756h6.05c.756,0,1.134-.378,1.134-.756a16.373,16.373,0,0,1-.378-1.891c-.378-.756-.378-1.512-.756-1.891C1071.94,318.368,1071.562,317.234,1071.184,315.721Z" transform="translate(298.809 359)" fill="#bcbec0"/>
        <path id="Path_380" data-name="Path 380" d="M1079.124,324.418c.378.756.756,1.891,1.134,2.647.378.378.378.756.378,1.512,0,.378.378.756.378,1.512a1.207,1.207,0,0,1-1.134,1.134h-1.512c-.756,0-1.891-.378-2.647-.378h4.159a1.32,1.32,0,0,0,.756-.378,7.009,7.009,0,0,0-.756-2.647A24.118,24.118,0,0,0,1079.124,324.418Z" transform="translate(298.809 359)" fill="#bcbec0"/>
        <path id="Path_381" data-name="Path 381" d="M1095.383,361.095s3.4-10.587,12.478-7.562C1112.4,355.423,1095.383,361.095,1095.383,361.095Z" transform="translate(298.809 359)" fill="#57a8ac"/>
        <path id="Path_382" data-name="Path 382" d="M1095.383,361.095s-4.915-12.478-12.1-12.478C1075.343,348.617,1095.383,361.095,1095.383,361.095Z" transform="translate(298.809 359)" fill="#57a8ac"/>
        <path id="Path_383" data-name="Path 383" d="M1094.249,360.338a32.649,32.649,0,0,1-4.915-5.294c-.378-.378-.756-1.134-1.134-1.512s-.756-1.134-1.134-1.512a3.409,3.409,0,0,0-1.891-.378,1.964,1.964,0,0,1-1.512-.756,2.866,2.866,0,0,0,1.512.756c.756,0,1.134.378,1.891.378l1.134,1.134c.378.378.756,1.134,1.134,1.512a16.445,16.445,0,0,0,2.269,2.647A10.786,10.786,0,0,0,1094.249,360.338Z" transform="translate(298.809 359)" fill="#bcbec0"/>
        <path id="Path_384" data-name="Path 384" d="M1084.8,353.154a2.273,2.273,0,0,0,1.512-.378h.756c.378,0,.756-.378.378-.756,0-.378,0-.378-.378-.756,0-.378-.378-.378-.378-.756-.378-.378-.378-.756-.756-1.134.378.378.378.756.756,1.134s.378.756.756,1.134a.37.37,0,0,1-.378.378h-.756C1085.93,353.154,1085.552,353.154,1084.8,353.154Z" transform="translate(298.809 359)" fill="#bcbec0"/>
        <path id="Path_385" data-name="Path 385" d="M1088.577,355.423c.378.378.378.378.756.378a.37.37,0,0,1,.378.378h.756a1.171,1.171,0,0,0,.378-.756v-.756c0,.378,0,.756-.378.756,0,.378,0,.756-.378.756a1549369312340.173,1549369312340.173,0,0,0-1.512-.756Z" transform="translate(298.809 359)" fill="#bcbec0"/>
        <path id="Path_386" data-name="Path 386" d="M1095.761,360.338a13.968,13.968,0,0,0,5.294-2.647c1.512-1.134,3.4-2.269,4.915-3.4a37.781,37.781,0,0,0-5.294,3.025A15.54,15.54,0,0,1,1095.761,360.338Z" transform="translate(298.809 359)" fill="#bcbec0"/>
        <path id="Path_387" data-name="Path 387" d="M1103.7,353.154c-.378.378-.378.756-.756,1.512,0,.378,0,.378-.378.756,0,.378-.378.378-.378.756s.378.378.756.378h.756a2.273,2.273,0,0,0,1.512-.378h-2.269c-.378,0-.378,0-.378-.378v-.756c0-.378,0-.378.378-.756C1103.323,354.289,1103.7,353.532,1103.7,353.154Z" transform="translate(298.809 359)" fill="#bcbec0"/>
        <rect id="Rectangle_67" data-name="Rectangle 67" width="1.134" height="66.169" transform="translate(1187.744 672.453)" fill="#57a8ac"/>
        <circle id="Ellipse_19" data-name="Ellipse 19" cx="29.114" cy="29.114" r="29.114" transform="translate(1159.385 615.736)" fill="#fbc83f"/>
        <path id="Path_389" data-name="Path 389" d="M911.622,288.5a21.93,21.93,0,0,1-43.861,0v-1.134a21.961,21.961,0,0,0,43.861,0Z" transform="translate(298.809 359)" fill="#f4c79a"/>
        <path id="Path_390" data-name="Path 390" d="M911.622,286.985a21.961,21.961,0,1,1-21.93-20.8A22.258,22.258,0,0,1,911.622,286.985Z" transform="translate(298.809 359)" fill="#cf9b50"/>
        <path id="Path_391" data-name="Path 391" d="M911.622,285.851v1.512a21.986,21.986,0,0,0-43.861,0v-1.512a21.93,21.93,0,0,1,43.861,0Z" transform="translate(298.809 359)" fill="#ab835f"/>
        <path id="Path_393" data-name="Path 393" d="M889.692,346.726s-7.94-23.821-28.358-16.637C851.124,333.871,889.692,346.726,889.692,346.726Z" transform="translate(298.809 359)" fill="#57a8ac"/>
        <path id="Path_394" data-name="Path 394" d="M889.692,346.726s10.587-27.98,27.224-27.98C934.308,318.746,889.692,346.726,889.692,346.726Z" transform="translate(298.809 359)" fill="#57a8ac"/>
        <path id="Path_395" data-name="Path 395" d="M891.582,344.458a66.808,66.808,0,0,0,11.343-11.721l2.269-3.4a10.191,10.191,0,0,1,2.647-3.025c1.134-.756,2.647-.756,4.159-1.134s2.647-.378,3.781-1.512c-.756,1.134-2.269,1.512-3.781,1.891a17.044,17.044,0,0,0-4.159,1.134,10.191,10.191,0,0,0-2.647,3.025l-2.269,3.4a40.475,40.475,0,0,1-5.294,6.05A27.653,27.653,0,0,1,891.582,344.458Z" transform="translate(298.809 359)" fill="#bcbec0"/>
        <path id="Path_396" data-name="Path 396" d="M913.134,328.955c-1.134,0-2.269-.378-3.4-.378a2.273,2.273,0,0,1-1.512-.378,1.207,1.207,0,0,1-1.134-1.134,1.965,1.965,0,0,1,.756-1.512c.378-.378.378-.756.756-1.512.756-.756,1.134-1.891,1.891-2.647a9.475,9.475,0,0,0-1.512,2.647,8.006,8.006,0,0,0-1.134,2.647.813.813,0,0,0,.756.756c.378,0,1.134.378,1.512.378C910.866,328.577,912,328.577,913.134,328.955Z" transform="translate(298.809 359)" fill="#bcbec0"/>
        <path id="Path_397" data-name="Path 397" d="M904.438,334.249c-.756.378-1.134.756-1.891,1.134a1.389,1.389,0,0,1-1.134.378c-.378,0-.756.378-1.512,0-.378-.756-.378-1.512-.756-1.891V331.98a16.376,16.376,0,0,0,.378,1.891c.378.756.378,1.512.756,1.891s1.134,0,1.512-.378C903.3,334.627,903.682,334.249,904.438,334.249Z" transform="translate(298.809 359)" fill="#bcbec0"/>
        <path id="Path_398" data-name="Path 398" d="M888.557,345.214c-4.537-1.134-8.318-3.781-12.1-6.428a118.237,118.237,0,0,0-11.343-7.562c4.159,1.512,7.94,4.537,11.721,6.806A33.821,33.821,0,0,0,888.557,345.214Z" transform="translate(298.809 359)" fill="#bcbec0"/>
        <path id="Path_399" data-name="Path 399" d="M870.786,328.955a26.062,26.062,0,0,0,1.134,3.025c.378.378.378,1.134.756,1.512a16.376,16.376,0,0,1,.378,1.891c0,.756-.756,1.134-1.512,1.134H870.03c-1.134,0-2.269-.378-3.4-.378h4.915a.813.813,0,0,0,.756-.756c0-.378-.378-1.134-.378-1.512s-.378-1.134-.378-1.512A11.04,11.04,0,0,0,870.786,328.955Z" transform="translate(298.809 359)" fill="#bcbec0"/>
        <path id="Path_400" data-name="Path 400" d="M877.214,335.761l1.134,2.269c0,.378.378.756.378,1.134s.378.756.378,1.134c0,.756-.756.756-1.134.756h-1.134c-.756,0-1.512-.378-2.269-.378h3.4a.37.37,0,0,0,.378-.378,5.374,5.374,0,0,0-.756-2.269C877.592,337.274,877.214,336.517,877.214,335.761Z" transform="translate(298.809 359)" fill="#bcbec0"/>
        <path id="Path_409" data-name="Path 409" d="M637.493,179.6c0,6.806,4.537,12.478,10.209,12.478h0c-5.672,0-10.209,5.672-10.209,12.478,0-6.806-4.537-12.478-10.209-12.478h0C632.955,192.08,637.493,186.408,637.493,179.6Z" transform="translate(298.809 359)" fill="#3d3e83"/>
        <path id="Path_410" data-name="Path 410" d="M608.756,170.527c0,6.806,4.537,12.478,10.209,12.478h0c-5.672,0-10.209,5.672-10.209,12.478,0-6.806-4.537-12.478-10.209-12.478h0C603.841,183,608.756,177.333,608.756,170.527Z" transform="translate(298.809 359)" fill="#3d3e83"/>
        <path id="Path_411" data-name="Path 411" d="M622.368,201.532c0,3.4,2.269,6.05,4.915,6.05h0c-2.647,0-4.915,2.647-4.915,6.05,0-3.4-2.269-6.05-4.915-6.05h0C620.1,207.582,622.368,204.935,622.368,201.532Z" transform="translate(298.809 359)" fill="#3d3e83"/>
        <path id="Path_412" data-name="Path 412" d="M627.284,161.075c0,4.159,2.647,7.562,6.428,7.562h0c-3.4,0-6.428,3.4-6.428,7.562,0-4.159-2.647-7.562-6.428-7.562h0C624.637,168.637,627.284,165.234,627.284,161.075Z" transform="translate(298.809 359)" fill="#3d3e83"/>
        <path id="Path_413" data-name="Path 413" d="M1251.542,58.607c0,6.806,4.537,12.478,10.209,12.478h0c-5.672,0-10.209,5.672-10.209,12.478,0-6.806-4.537-12.478-10.209-12.478h0C1247,71.463,1251.542,65.791,1251.542,58.607Z" transform="translate(298.809 359)" fill="#3d3e83"/>
        <path id="Path_414" data-name="Path 414" d="M1222.806,49.532c0,6.806,4.537,12.478,10.209,12.478h0c-5.672,0-10.209,5.672-10.209,12.478,0-6.806-4.537-12.478-10.209-12.478h0C1218.269,62.01,1222.806,56.338,1222.806,49.532Z" transform="translate(298.809 359)" fill="#3d3e83"/>
        <path id="Path_415" data-name="Path 415" d="M1236.418,80.537c0,3.4,2.269,6.05,4.915,6.05h0c-2.647,0-4.915,2.647-4.915,6.05,0-3.4-2.269-6.05-4.915-6.05h0C1234.149,86.587,1236.418,83.94,1236.418,80.537Z" transform="translate(298.809 359)" fill="#3d3e83"/>
        <path id="Path_416" data-name="Path 416" d="M1241.711,40.458c0,4.159,2.647,7.562,6.428,7.562h0c-3.4,0-6.428,3.4-6.428,7.562,0-4.159-2.647-7.562-6.428-7.562h0C1238.687,48.02,1241.711,44.617,1241.711,40.458Z" transform="translate(298.809 359)" fill="#3d3e83"/>
        <path id="Path_417" data-name="Path 417" d="M979.3,78.269a27.6,27.6,0,1,1,27.6-27.6C1007.284,65.791,994.806,78.269,979.3,78.269Zm0-51.8a24.2,24.2,0,1,0,24.2,24.2C1003.881,37.433,992.915,26.468,979.3,26.468Z" transform="translate(298.809 359)" fill="#3d3e83"/>
        <path id="Path_418" data-name="Path 418" d="M979.3,69.572a18.905,18.905,0,1,1,18.906-18.905A18.96,18.96,0,0,1,979.3,69.572Zm0-34.03a15.124,15.124,0,1,0,15.124,15.124C994.806,42.348,988,35.542,979.3,35.542Z" transform="translate(298.809 359)" fill="#3d3e83"/>
        <path id="Path_419" data-name="Path 419" d="M979.3,60.119a9.453,9.453,0,1,1,9.453-9.453A9.361,9.361,0,0,1,979.3,60.119Zm0-15.5a6.05,6.05,0,1,0,6.05,6.05A5.972,5.972,0,0,0,979.3,44.617Z" transform="translate(298.809 359)" fill="#3d3e83"/>
        <rect id="Rectangle_68" data-name="Rectangle 68" width="12.856" height="27.602" transform="translate(1250.49 426.867) rotate(45)" fill="#3d3e83"/>
        <path id="Path_420" data-name="Path 420" d="M936.577,62.01l41.97-11.343L967.2,92.259,955.1,73.731Z" transform="translate(298.809 359)" fill="#3d3e83"/>
        <path id="Path_6" data-name="Path 6" d="M570.349,10.648a.813.813,0,0,0-.649-.3h-4.834a12.656,12.656,0,0,0-1.809-4.807h6.586a.815.815,0,0,0,.65-.3,1.149,1.149,0,0,0,.254-.768V1.068A1.148,1.148,0,0,0,570.293.3a.816.816,0,0,0-.651-.3H546.125a.816.816,0,0,0-.65.3,1.15,1.15,0,0,0-.254.768v4.44a1.124,1.124,0,0,0,.269.751.809.809,0,0,0,.636.317h4.1q5.963,0,7.575,3.772H546.125a.813.813,0,0,0-.65.3,1.15,1.15,0,0,0-.254.768v3.405a1.145,1.145,0,0,0,.254.767.814.814,0,0,0,.65.3h12.07a6.4,6.4,0,0,1-2.9,4.173,11.13,11.13,0,0,1-6.007,1.436h-3.166a.809.809,0,0,0-.636.317,1.125,1.125,0,0,0-.269.751V26.8a1.1,1.1,0,0,0,.254.734q5.427,6.809,14.076,19.06a.8.8,0,0,0,.707.4h5.512a.821.821,0,0,0,.819-.6,1.038,1.038,0,0,0-.113-1.135Q558.224,33.313,553.5,27.372a13.234,13.234,0,0,0,7.8-3.672,13.211,13.211,0,0,0,3.646-7.811H569.7a.813.813,0,0,0,.649-.3,1.144,1.144,0,0,0,.255-.767v-3.4A1.146,1.146,0,0,0,570.349,10.648Z" transform="translate(891.896 487.5)" fill="#fbc83f"/>
        <path id="Path_6-2" data-name="Path 6" d="M568.32,9.526a.756.756,0,0,0-.6-.269H563.28a11.139,11.139,0,0,0-1.663-4.3h6.054a.757.757,0,0,0,.6-.268A1.01,1.01,0,0,0,568.5,4V.956a1.009,1.009,0,0,0-.233-.687.758.758,0,0,0-.6-.269H546.052a.758.758,0,0,0-.6.269,1.011,1.011,0,0,0-.234.687V4.927a.99.99,0,0,0,.247.672.751.751,0,0,0,.584.284h3.768q5.482,0,6.963,3.374H546.052a.756.756,0,0,0-.6.269,1.011,1.011,0,0,0-.234.687v3.046a1.007,1.007,0,0,0,.234.686.757.757,0,0,0,.6.269h11.1a5.732,5.732,0,0,1-2.663,3.733,10.456,10.456,0,0,1-5.522,1.284h-2.91a.752.752,0,0,0-.584.284.99.99,0,0,0-.247.672v3.793a.965.965,0,0,0,.234.657q4.989,6.092,12.94,17.051a.735.735,0,0,0,.65.358h5.067a.753.753,0,0,0,.753-.538.908.908,0,0,0-.1-1.015Q557.174,29.8,552.834,24.486a12.307,12.307,0,0,0,7.172-3.285c1.836-1.792,3.352-6.988,3.352-6.988h4.366a.755.755,0,0,0,.6-.269,1.006,1.006,0,0,0,.234-.686V10.213A1.008,1.008,0,0,0,568.32,9.526Z" transform="translate(721.111 522)" fill="#fbc83f"/>
        <path id="Path_6-3" data-name="Path 6" d="M563.7,7.061a.626.626,0,0,0-.478-.2h-3.555a7.91,7.91,0,0,0-1.33-3.187h4.843a.628.628,0,0,0,.478-.2.715.715,0,0,0,.186-.509V.708A.714.714,0,0,0,563.659.2a.628.628,0,0,0-.478-.2H545.886a.628.628,0,0,0-.478.2.715.715,0,0,0-.187.509V3.652a.7.7,0,0,0,.2.5.62.62,0,0,0,.467.21H548.9q4.386,0,5.571,2.5h-8.585a.627.627,0,0,0-.478.2.715.715,0,0,0-.187.509V9.827a.713.713,0,0,0,.187.509.627.627,0,0,0,.478.2h8.876a4.278,4.278,0,0,1-2.131,2.767,8.9,8.9,0,0,1-4.417.952h-2.328a.62.62,0,0,0-.467.21.7.7,0,0,0-.2.5v2.811a.684.684,0,0,0,.187.487Q549.4,22.775,555.76,30.9a.6.6,0,0,0,.52.266h4.054a.6.6,0,0,0,.6-.4.634.634,0,0,0-.083-.753q-6.069-7.924-9.541-11.864a10.2,10.2,0,0,0,5.737-2.435,8.428,8.428,0,0,0,2.681-5.179h3.493a.626.626,0,0,0,.478-.2.712.712,0,0,0,.187-.509V7.57A.714.714,0,0,0,563.7,7.061Z" transform="translate(440.111 594)" fill="#fbc83f"/>
        <path id="Path_6-4" data-name="Path 6" d="M557.966,5.133a.421.421,0,0,0-.329-.145h-2.452a5.92,5.92,0,0,0-.917-2.317h3.34a.422.422,0,0,0,.33-.145.537.537,0,0,0,.129-.37V.515a.536.536,0,0,0-.129-.37.423.423,0,0,0-.33-.145H545.679a.423.423,0,0,0-.33.145.536.536,0,0,0-.129.37v2.14a.526.526,0,0,0,.136.362.418.418,0,0,0,.322.153h2.079q3.025,0,3.842,1.818h-5.921a.422.422,0,0,0-.33.145.537.537,0,0,0-.129.37V7.144a.535.535,0,0,0,.129.37.422.422,0,0,0,.33.145H551.8a3.093,3.093,0,0,1-1.469,2.012,5.88,5.88,0,0,1-3.047.692h-1.606a.419.419,0,0,0-.322.153.526.526,0,0,0-.136.362v2.044a.513.513,0,0,0,.129.354q2.752,3.283,7.139,9.188a.408.408,0,0,0,.359.193h2.8a.415.415,0,0,0,.416-.29A.48.48,0,0,0,556,21.82q-4.186-5.761-6.58-8.625a6.862,6.862,0,0,0,3.957-1.77,6.241,6.241,0,0,0,1.849-3.766h2.409a.421.421,0,0,0,.329-.145.534.534,0,0,0,.129-.37V5.5A.535.535,0,0,0,557.966,5.133Z" transform="translate(332.111 630)" fill="#fbc83f"/>
        <path id="Path_6-5" data-name="Path 6" d="M550.435,1.861a.183.183,0,0,0-.135-.052h-1a2.014,2.014,0,0,0-.375-.84h1.366a.183.183,0,0,0,.135-.052.181.181,0,0,0,.053-.134v-.6a.181.181,0,0,0-.053-.134A.183.183,0,0,0,550.288,0h-4.88a.183.183,0,0,0-.135.052.181.181,0,0,0-.053.134V.963a.179.179,0,0,0,.056.131.181.181,0,0,0,.132.055h.85q1.237,0,1.572.659h-2.422a.18.18,0,0,0-.188.187v.6a.181.181,0,0,0,.053.134.183.183,0,0,0,.135.052h2.5a1.141,1.141,0,0,1-.6.729,2.659,2.659,0,0,1-1.246.251h-.657a.181.181,0,0,0-.132.055.179.179,0,0,0-.056.131v.741a.174.174,0,0,0,.053.128Q546.4,6,548.194,8.144a.173.173,0,0,0,.147.07h1.144a.17.17,0,0,0,.17-.105.159.159,0,0,0-.023-.2q-1.712-2.089-2.692-3.127a2.983,2.983,0,0,0,1.619-.642,2.177,2.177,0,0,0,.756-1.365h.986a.183.183,0,0,0,.135-.052.181.181,0,0,0,.053-.134V2A.181.181,0,0,0,550.435,1.861Z" transform="translate(387.111 695)" fill="#fbc83f"/>
        <path id="Path_6-6" data-name="Path 6" d="M554.914,3.767a.326.326,0,0,0-.25-.106H552.8a4.258,4.258,0,0,0-.7-1.7h2.541a.326.326,0,0,0,.251-.106.385.385,0,0,0,.1-.272V.378a.385.385,0,0,0-.1-.272A.327.327,0,0,0,554.642,0H545.57a.327.327,0,0,0-.251.106.385.385,0,0,0-.1.272v1.57a.378.378,0,0,0,.1.266.323.323,0,0,0,.245.112h1.581q2.3,0,2.922,1.334h-4.5a.326.326,0,0,0-.251.106.385.385,0,0,0-.1.272v1.2a.384.384,0,0,0,.1.271.326.326,0,0,0,.251.106h4.656A2.277,2.277,0,0,1,549.108,7.1a4.606,4.606,0,0,1-2.317.508H545.57a.323.323,0,0,0-.245.112.379.379,0,0,0-.1.266v1.5a.368.368,0,0,0,.1.26q2.093,2.409,5.43,6.742a.313.313,0,0,0,.273.142h2.126a.315.315,0,0,0,.316-.213.343.343,0,0,0-.044-.4q-3.184-4.227-5-6.329a5.308,5.308,0,0,0,3.01-1.3,4.521,4.521,0,0,0,1.406-2.763h1.832a.326.326,0,0,0,.25-.106.384.384,0,0,0,.1-.271v-1.2A.384.384,0,0,0,554.914,3.767Z" transform="translate(512.111 660)" fill="#fbc83f"/>
        <path id="Path_6-7" data-name="Path 6" d="M557.761,4.644a.431.431,0,0,0-.324-.131h-2.412a5.12,5.12,0,0,0-.9-2.1h3.287a.432.432,0,0,0,.324-.131.462.462,0,0,0,.126-.335V.466a.462.462,0,0,0-.126-.335A.433.433,0,0,0,557.408,0H545.672a.433.433,0,0,0-.324.131.462.462,0,0,0-.127.335V2.4a.455.455,0,0,0,.134.328.427.427,0,0,0,.317.138h2.046q2.976,0,3.78,1.645h-5.826a.432.432,0,0,0-.324.131.462.462,0,0,0-.127.335V6.464a.461.461,0,0,0,.127.335.432.432,0,0,0,.324.131H551.7a2.827,2.827,0,0,1-1.446,1.82,6.2,6.2,0,0,1-3,.626h-1.58a.427.427,0,0,0-.317.138.455.455,0,0,0-.134.328v1.849a.442.442,0,0,0,.127.32q2.708,2.97,7.025,8.314a.411.411,0,0,0,.353.175h2.751a.465.465,0,0,0,.352-.757q-4.118-5.213-6.474-7.8a7.035,7.035,0,0,0,3.893-1.6,5.491,5.491,0,0,0,1.819-3.407h2.37a.431.431,0,0,0,.324-.131.46.46,0,0,0,.127-.335V4.98A.461.461,0,0,0,557.761,4.644Z" transform="translate(637.111 636)" fill="#fbc83f"/>
        <path id="Path_6-8" data-name="Path 6" d="M556.205,4.225a.371.371,0,0,0-.284-.119h-2.113a4.749,4.749,0,0,0-.791-1.907H555.9a.372.372,0,0,0,.284-.119.429.429,0,0,0,.111-.3V.424a.429.429,0,0,0-.111-.3A.372.372,0,0,0,555.9,0h-10.28a.372.372,0,0,0-.284.119.429.429,0,0,0-.111.3V2.185a.422.422,0,0,0,.117.3.368.368,0,0,0,.278.126h1.792q2.607,0,3.311,1.5h-5.1a.371.371,0,0,0-.284.119.43.43,0,0,0-.111.3V5.88a.428.428,0,0,0,.111.3.372.372,0,0,0,.284.119h5.276a2.557,2.557,0,0,1-1.266,1.656,5.263,5.263,0,0,1-2.626.57h-1.384a.368.368,0,0,0-.278.126.422.422,0,0,0-.117.3v1.682a.411.411,0,0,0,.111.291q2.372,2.7,6.153,7.562a.356.356,0,0,0,.309.159h2.41a.357.357,0,0,0,.358-.238.381.381,0,0,0-.049-.45q-3.607-4.741-5.671-7.1a6.045,6.045,0,0,0,3.41-1.457,5.054,5.054,0,0,0,1.594-3.1h2.076a.371.371,0,0,0,.284-.119.428.428,0,0,0,.111-.3V4.529A.428.428,0,0,0,556.205,4.225Z" transform="translate(770.111 647)" fill="#fbc83f"/>
        <path id="Path_6-9" data-name="Path 6" d="M554.378,3.653a.3.3,0,0,0-.237-.1H552.38a4.191,4.191,0,0,0-.659-1.649h2.4a.3.3,0,0,0,.237-.1.38.38,0,0,0,.092-.263V.366A.379.379,0,0,0,554.358.1a.305.305,0,0,0-.237-.1h-8.57a.3.3,0,0,0-.237.1.38.38,0,0,0-.093.263V1.89a.372.372,0,0,0,.1.258.3.3,0,0,0,.232.109h1.494q2.173,0,2.76,1.294H545.55a.3.3,0,0,0-.237.1.38.38,0,0,0-.093.263V5.085a.378.378,0,0,0,.093.263.3.3,0,0,0,.237.1h4.4a2.2,2.2,0,0,1-1.056,1.432,4.258,4.258,0,0,1-2.189.493H545.55a.3.3,0,0,0-.232.109.373.373,0,0,0-.1.258V9.2a.363.363,0,0,0,.093.252q1.978,2.336,5.13,6.539a.294.294,0,0,0,.258.137h2.009a.3.3,0,0,0,.3-.206.339.339,0,0,0-.041-.389q-3.007-4.1-4.728-6.138a4.952,4.952,0,0,0,2.843-1.26,4.426,4.426,0,0,0,1.329-2.68h1.731a.3.3,0,0,0,.237-.1.378.378,0,0,0,.093-.263V3.917A.379.379,0,0,0,554.378,3.653Z" transform="translate(956.779 660)" fill="#fbc83f"/>
        <path id="Path_6-10" data-name="Path 6" d="M561.968,5.834a.6.6,0,0,0-.433-.164h-3.222a6.242,6.242,0,0,0-1.205-2.633H561.5a.6.6,0,0,0,.433-.164.562.562,0,0,0,.169-.421V.585a.561.561,0,0,0-.169-.421A.6.6,0,0,0,561.5,0H545.823a.6.6,0,0,0-.433.164.562.562,0,0,0-.169.421V3.017a.554.554,0,0,0,.179.411.587.587,0,0,0,.424.174h2.732q3.974,0,5.048,2.067h-7.78a.6.6,0,0,0-.433.164.562.562,0,0,0-.169.421V8.12a.56.56,0,0,0,.169.42.6.6,0,0,0,.433.164h8.044a3.6,3.6,0,0,1-1.931,2.286,8.72,8.72,0,0,1-4,.787h-2.11a.588.588,0,0,0-.424.174.555.555,0,0,0-.179.411v2.323a.539.539,0,0,0,.169.4q3.617,3.731,9.382,10.443a.562.562,0,0,0,.471.219h3.674a.547.547,0,0,0,.546-.329.489.489,0,0,0-.075-.622q-5.5-6.547-8.646-9.8a9.715,9.715,0,0,0,5.2-2.012,6.787,6.787,0,0,0,2.43-4.28h3.165a.6.6,0,0,0,.433-.164.559.559,0,0,0,.17-.42V6.255A.56.56,0,0,0,561.968,5.834Z" transform="translate(840.111 610)" fill="#fbc83f"/>
        <path id="Path_6-11" data-name="Path 6" d="M565.68,8.223a.677.677,0,0,0-.529-.232h-3.936a9.474,9.474,0,0,0-1.473-3.712h5.362a.678.678,0,0,0,.529-.232.858.858,0,0,0,.206-.593V.825a.857.857,0,0,0-.206-.593A.679.679,0,0,0,565.1,0H545.957a.679.679,0,0,0-.529.232.859.859,0,0,0-.207.593V4.253a.842.842,0,0,0,.219.58.672.672,0,0,0,.518.245h3.337q4.855,0,6.167,2.913h-9.5a.678.678,0,0,0-.529.232.859.859,0,0,0-.207.593v2.629a.855.855,0,0,0,.207.593.678.678,0,0,0,.529.232h9.827a4.956,4.956,0,0,1-2.359,3.222,9.455,9.455,0,0,1-4.891,1.109h-2.577a.672.672,0,0,0-.518.245.842.842,0,0,0-.219.58V20.7a.82.82,0,0,0,.207.567q4.418,5.258,11.461,14.718a.655.655,0,0,0,.575.309h4.488a.666.666,0,0,0,.667-.464.768.768,0,0,0-.092-.876q-6.719-9.228-10.563-13.816a11.026,11.026,0,0,0,6.352-2.835,9.99,9.99,0,0,0,2.969-6.032h3.867a.677.677,0,0,0,.529-.232.855.855,0,0,0,.207-.593V8.816A.857.857,0,0,0,565.68,8.223Z" transform="translate(571.111 558)" fill="#fbc83f"/>
      </g>
    </g>
  </g>
</svg>
